M48
; DRILL file {KiCad 9.0.6} date 2025-12-17T16:55:46-0700
; FORMAT={-:-/ absolute / metric / decimal}
; #@! TF.CreationDate,2025-12-17T16:55:46-07:00
; #@! TF.GenerationSoftware,Kicad,Pcbnew,9.0.6
; #@! TF.FileFunction,Plated,1,2,PTH
FMAT,2
METRIC
; #@! TA.AperFunction,Plated,PTH,ViaDrill
T1C0.300
; #@! TA.AperFunction,Plated,PTH,ComponentDrill
T2C1.000
; #@! TA.AperFunction,Plated,PTH,ComponentDrill
T3C3.200
%
G90
G05
T1
X117.5Y-87.5
X117.5Y-92.0
X117.5Y-94.0
X117.5Y-98.5
X117.5Y-102.5
X118.0Y-89.5
X118.0Y-96.5
X118.0Y-100.0
X118.5Y-93.5
X118.5Y-94.5
X118.5Y-98.5
X119.0Y-88.0
X119.0Y-91.0
X119.0Y-101.5
X119.5Y-98.5
X119.5Y-103.0
X122.5Y-103.5
X124.0Y-90.5
X124.0Y-96.0
X124.0Y-97.0
X124.0Y-108.5
X124.5Y-86.0
X124.5Y-91.0
X124.5Y-93.0
X124.5Y-95.0
X124.5Y-98.5
X125.0Y-87.0
X125.0Y-89.5
X125.0Y-96.0
X125.0Y-97.5
X125.5Y-109.0
X126.0Y-86.0
X126.0Y-99.5
X126.5Y-101.5
X127.0Y-99.5
X127.0Y-108.5
X127.5Y-86.0
X127.5Y-101.0
X128.0Y-95.0
X128.0Y-98.5
X128.5Y-87.5
X128.5Y-108.5
X129.0Y-89.5
X129.0Y-98.0
X129.5Y-90.5
X130.0Y-87.0
X130.0Y-89.5
X130.5Y-90.5
X130.5Y-109.0
X131.0Y-98.0
X131.5Y-87.5
X131.5Y-89.5
X131.5Y-91.0
X131.5Y-101.5
X132.0Y-92.5
X132.0Y-97.5
X132.5Y-89.5
X132.5Y-98.5
X132.5Y-108.5
X133.0Y-82.5
X133.0Y-84.5
X133.0Y-90.5
X133.0Y-91.5
X133.0Y-92.5
X133.0Y-101.0
X133.0Y-109.0
X133.5Y-83.5
X134.0Y-82.0
X134.0Y-90.0
X134.0Y-94.0
X134.0Y-108.0
X134.5Y-84.5
X134.5Y-91.5
X134.5Y-96.0
X134.5Y-101.0
X134.5Y-109.0
X135.0Y-91.0
X135.0Y-93.0
X135.0Y-94.5
X135.0Y-97.5
X135.5Y-90.0
X135.5Y-92.0
X136.0Y-91.0
X136.0Y-93.0
X136.0Y-94.0
X136.0Y-95.5
X136.0Y-96.5
X136.5Y-97.0
X137.0Y-90.0
X137.0Y-92.5
X137.0Y-94.5
X137.0Y-98.0
X137.5Y-96.0
X138.0Y-101.0
X140.0Y-92.5
X140.0Y-109.0
X140.5Y-89.5
X140.5Y-94.0
X140.5Y-96.0
X140.5Y-97.5
X141.0Y-95.0
X141.5Y-89.0
X141.5Y-90.0
X141.5Y-92.5
X141.5Y-94.0
X141.5Y-96.0
X141.5Y-97.0
X142.0Y-91.0
X142.5Y-92.0
X142.5Y-93.5
X142.5Y-95.0
X142.5Y-96.5
X143.5Y-90.5
X143.5Y-94.0
X144.0Y-93.0
X144.0Y-98.5
X144.5Y-80.5
X144.5Y-92.0
X145.0Y-85.0
X145.5Y-97.5
X147.0Y-97.0
X147.5Y-89.0
X147.5Y-94.0
X147.5Y-95.0
X147.5Y-99.0
X148.0Y-90.0
X148.0Y-97.0
X148.5Y-91.0
X148.5Y-92.5
X148.5Y-96.0
X148.5Y-97.5
X149.0Y-89.0
X149.5Y-90.5
X149.5Y-91.5
X149.5Y-94.0
X149.5Y-95.5
X150.0Y-92.5
X150.0Y-96.5
X150.5Y-90.0
X150.5Y-109.0
X151.0Y-81.0
X151.0Y-89.0
X151.0Y-91.5
X151.0Y-96.0
X151.0Y-99.5
X151.5Y-93.0
X152.0Y-98.5
X152.0Y-99.5
X152.0Y-108.5
X153.0Y-81.0
X153.0Y-97.5
X153.0Y-99.0
X153.0Y-109.0
X154.0Y-97.0
X154.5Y-89.5
X154.5Y-91.5
X154.5Y-93.5
X154.5Y-95.5
X154.5Y-109.0
X155.0Y-99.5
X155.5Y-90.0
X155.5Y-91.5
X155.5Y-93.0
X155.5Y-94.5
X155.5Y-96.0
X156.0Y-81.0
X156.0Y-82.5
X156.0Y-84.0
X156.0Y-89.0
X156.0Y-97.0
X156.0Y-107.0
X156.5Y-108.5
X157.0Y-105.0
X157.5Y-83.0
X157.5Y-96.5
X157.5Y-106.5
X158.0Y-85.0
X158.0Y-86.0
X158.0Y-87.0
X158.0Y-98.0
X158.0Y-103.5
X158.0Y-107.5
X158.5Y-88.5
X158.5Y-95.5
X158.5Y-105.0
X158.5Y-109.0
X159.0Y-85.0
X159.0Y-87.0
X159.0Y-104.5
X159.5Y-86.0
X160.0Y-88.5
X160.0Y-90.0
X160.5Y-87.0
X160.5Y-89.0
X160.831Y-99.25
X161.0Y-88.5
X161.0Y-98.0
X161.5Y-87.0
X161.5Y-90.0
X162.0Y-88.5
X162.0Y-92.0
X162.0Y-99.5
X163.0Y-88.0
X163.0Y-89.5
X163.0Y-90.5
X163.0Y-102.5
X163.5Y-91.5
X164.0Y-88.5
X164.0Y-90.5
X165.0Y-90.0
X165.0Y-91.5
X165.0Y-93.0
X165.0Y-99.5
X165.0Y-101.0
X165.0Y-102.5
X165.453Y-94.5
T2
X121.753Y-88.292
X121.753Y-90.832
X121.753Y-93.372
X121.753Y-98.057
X121.753Y-100.597
X125.253Y-83.332
X125.253Y-106.332
X127.793Y-83.332
X127.793Y-106.332
X130.333Y-83.332
X130.333Y-106.332
X135.093Y-87.212
X135.093Y-102.452
X137.633Y-87.212
X137.633Y-102.452
X137.753Y-83.332
X137.753Y-106.332
X140.173Y-87.212
X140.173Y-102.452
X140.293Y-83.332
X140.293Y-106.332
X142.713Y-87.212
X142.713Y-102.452
X142.833Y-83.332
X142.833Y-106.332
X145.253Y-87.212
X145.253Y-102.452
X147.713Y-106.332
X147.753Y-83.332
X147.793Y-87.212
X147.793Y-102.452
X150.253Y-106.332
X150.293Y-83.332
X150.333Y-87.212
X150.333Y-102.452
X152.793Y-106.332
X152.833Y-83.332
X152.873Y-87.212
X152.873Y-102.452
X155.413Y-87.212
X155.413Y-102.452
T3
X119.753Y-82.832
X119.753Y-106.832
X162.753Y-82.832
X162.753Y-106.832
M30
