%TF.GenerationSoftware,KiCad,Pcbnew,9.0.6*%
%TF.CreationDate,2025-12-17T16:55:43-07:00*%
%TF.ProjectId,fizzbee,66697a7a-6265-4652-9e6b-696361645f70,rev?*%
%TF.SameCoordinates,Original*%
%TF.FileFunction,Soldermask,Top*%
%TF.FilePolarity,Negative*%
%FSLAX46Y46*%
G04 Gerber Fmt 4.6, Leading zero omitted, Abs format (unit mm)*
G04 Created by KiCad (PCBNEW 9.0.6) date 2025-12-17 16:55:43*
%MOMM*%
%LPD*%
G01*
G04 APERTURE LIST*
G04 Aperture macros list*
%AMRoundRect*
0 Rectangle with rounded corners*
0 $1 Rounding radius*
0 $2 $3 $4 $5 $6 $7 $8 $9 X,Y pos of 4 corners*
0 Add a 4 corners polygon primitive as box body*
4,1,4,$2,$3,$4,$5,$6,$7,$8,$9,$2,$3,0*
0 Add four circle primitives for the rounded corners*
1,1,$1+$1,$2,$3*
1,1,$1+$1,$4,$5*
1,1,$1+$1,$6,$7*
1,1,$1+$1,$8,$9*
0 Add four rect primitives between the rounded corners*
20,1,$1+$1,$2,$3,$4,$5,0*
20,1,$1+$1,$4,$5,$6,$7,0*
20,1,$1+$1,$6,$7,$8,$9,0*
20,1,$1+$1,$8,$9,$2,$3,0*%
G04 Aperture macros list end*
%ADD10RoundRect,0.140000X0.021213X-0.219203X0.219203X-0.021213X-0.021213X0.219203X-0.219203X0.021213X0*%
%ADD11C,3.200000*%
%ADD12C,6.400000*%
%ADD13R,1.700000X1.700000*%
%ADD14C,1.700000*%
%ADD15RoundRect,0.140000X0.170000X-0.140000X0.170000X0.140000X-0.170000X0.140000X-0.170000X-0.140000X0*%
%ADD16RoundRect,0.102000X-0.197990X-0.388909X0.388909X0.197990X0.197990X0.388909X-0.388909X-0.197990X0*%
%ADD17RoundRect,0.102000X0.197990X-0.388909X0.388909X-0.197990X-0.197990X0.388909X-0.388909X0.197990X0*%
%ADD18RoundRect,0.140000X-0.140000X-0.170000X0.140000X-0.170000X0.140000X0.170000X-0.140000X0.170000X0*%
%ADD19C,1.712000*%
%ADD20RoundRect,0.102000X0.754000X-0.754000X0.754000X0.754000X-0.754000X0.754000X-0.754000X-0.754000X0*%
%ADD21RoundRect,0.140000X-0.021213X0.219203X-0.219203X0.021213X0.021213X-0.219203X0.219203X-0.021213X0*%
G04 APERTURE END LIST*
D10*
%TO.C,C4*%
X127160589Y-91839411D03*
X127839411Y-91160589D03*
%TD*%
D11*
%TO.C,*%
X162753446Y-82832340D03*
%TD*%
%TO.C,REF\u002A\u002A*%
X119753446Y-82832340D03*
%TD*%
%TO.C,*%
X162753446Y-106832340D03*
%TD*%
D12*
%TO.C,REF\u002A\u002A*%
X119753446Y-82832340D03*
%TD*%
D13*
%TO.C,J7*%
X125253446Y-106332340D03*
D14*
X127793446Y-106332340D03*
X130333446Y-106332340D03*
%TD*%
D15*
%TO.C,R5*%
X161753446Y-102292340D03*
X161753446Y-101332340D03*
%TD*%
D11*
%TO.C,*%
X119753446Y-106832340D03*
%TD*%
D13*
%TO.C,J4*%
X137753446Y-83332340D03*
D14*
X140293446Y-83332340D03*
X142833446Y-83332340D03*
%TD*%
D16*
%TO.C,U2*%
X159506892Y-95164680D03*
X159860446Y-95518234D03*
X160213999Y-95871787D03*
X160567552Y-96225340D03*
X160921106Y-96578894D03*
D17*
X161939340Y-96225340D03*
X162292893Y-95871787D03*
X162646446Y-95518234D03*
D16*
X163000000Y-94500000D03*
X162646446Y-94146446D03*
X162292893Y-93792893D03*
X161939340Y-93439340D03*
X161585786Y-93085786D03*
D17*
X160567552Y-93439340D03*
X160213999Y-93792893D03*
X159860446Y-94146446D03*
%TD*%
D12*
%TO.C,REF\u002A\u002A*%
X162753446Y-106832340D03*
%TD*%
D13*
%TO.C,J1*%
X121753446Y-98057340D03*
D14*
X121753446Y-100597340D03*
%TD*%
D18*
%TO.C,C5*%
X133293446Y-106332340D03*
X134253446Y-106332340D03*
%TD*%
D13*
%TO.C,J6*%
X125253446Y-83332340D03*
D14*
X127793446Y-83332340D03*
X130333446Y-83332340D03*
%TD*%
D15*
%TO.C,R6*%
X159253446Y-102312340D03*
X159253446Y-101352340D03*
%TD*%
D13*
%TO.C,J5*%
X147753446Y-83332340D03*
D14*
X150293446Y-83332340D03*
X152833446Y-83332340D03*
%TD*%
D13*
%TO.C,J3*%
X147713446Y-106332340D03*
D14*
X150253446Y-106332340D03*
X152793446Y-106332340D03*
%TD*%
D16*
%TO.C,U3*%
X126506892Y-95164680D03*
X126860446Y-95518234D03*
X127213999Y-95871787D03*
X127567552Y-96225340D03*
X127921106Y-96578894D03*
D17*
X128939340Y-96225340D03*
X129292893Y-95871787D03*
X129646446Y-95518234D03*
D16*
X130000000Y-94500000D03*
X129646446Y-94146446D03*
X129292893Y-93792893D03*
X128939340Y-93439340D03*
X128585786Y-93085786D03*
D17*
X127567552Y-93439340D03*
X127213999Y-93792893D03*
X126860446Y-94146446D03*
%TD*%
D10*
%TO.C,C3*%
X130321178Y-96678822D03*
X131000000Y-96000000D03*
%TD*%
D12*
%TO.C,REF\u002A\u002A*%
X162753446Y-82832340D03*
%TD*%
%TO.C,REF\u002A\u002A*%
X119753446Y-106832340D03*
%TD*%
D10*
%TO.C,C2*%
X159000000Y-93000000D03*
X159678822Y-92321178D03*
%TD*%
D13*
%TO.C,J8*%
X121753446Y-88292340D03*
D14*
X121753446Y-90832340D03*
X121753446Y-93372340D03*
%TD*%
D13*
%TO.C,J2*%
X137753446Y-106332340D03*
D14*
X140293446Y-106332340D03*
X142833446Y-106332340D03*
%TD*%
D19*
%TO.C,U1*%
X142713446Y-102452340D03*
X145253446Y-102452340D03*
X147793446Y-102452340D03*
X140173446Y-102452340D03*
X150333446Y-102452340D03*
X152873446Y-102452340D03*
D20*
X135093446Y-102452340D03*
D19*
X155413446Y-102452340D03*
X155413446Y-87212340D03*
X152873446Y-87212340D03*
X150333446Y-87212340D03*
X147793446Y-87212340D03*
X145253446Y-87212340D03*
X142713446Y-87212340D03*
X140173446Y-87212340D03*
X137633446Y-102452340D03*
X137633446Y-87212340D03*
X135093446Y-87212340D03*
%TD*%
D21*
%TO.C,C1*%
X163839411Y-96660589D03*
X163160589Y-97339411D03*
%TD*%
M02*
