%TF.GenerationSoftware,KiCad,Pcbnew,9.0.6*%
%TF.CreationDate,2025-12-17T16:55:42-07:00*%
%TF.ProjectId,fizzbee,66697a7a-6265-4652-9e6b-696361645f70,rev?*%
%TF.SameCoordinates,Original*%
%TF.FileFunction,Copper,L1,Top*%
%TF.FilePolarity,Positive*%
%FSLAX46Y46*%
G04 Gerber Fmt 4.6, Leading zero omitted, Abs format (unit mm)*
G04 Created by KiCad (PCBNEW 9.0.6) date 2025-12-17 16:55:42*
%MOMM*%
%LPD*%
G01*
G04 APERTURE LIST*
G04 Aperture macros list*
%AMRoundRect*
0 Rectangle with rounded corners*
0 $1 Rounding radius*
0 $2 $3 $4 $5 $6 $7 $8 $9 X,Y pos of 4 corners*
0 Add a 4 corners polygon primitive as box body*
4,1,4,$2,$3,$4,$5,$6,$7,$8,$9,$2,$3,0*
0 Add four circle primitives for the rounded corners*
1,1,$1+$1,$2,$3*
1,1,$1+$1,$4,$5*
1,1,$1+$1,$6,$7*
1,1,$1+$1,$8,$9*
0 Add four rect primitives between the rounded corners*
20,1,$1+$1,$2,$3,$4,$5,0*
20,1,$1+$1,$4,$5,$6,$7,0*
20,1,$1+$1,$6,$7,$8,$9,0*
20,1,$1+$1,$8,$9,$2,$3,0*%
%AMRotRect*
0 Rectangle, with rotation*
0 The origin of the aperture is its center*
0 $1 length*
0 $2 width*
0 $3 Rotation angle, in degrees counterclockwise*
0 Add horizontal line*
21,1,$1,$2,0,0,$3*%
G04 Aperture macros list end*
%TA.AperFunction,SMDPad,CuDef*%
%ADD10RoundRect,0.140000X0.021213X-0.219203X0.219203X-0.021213X-0.021213X0.219203X-0.219203X0.021213X0*%
%TD*%
%TA.AperFunction,ComponentPad*%
%ADD11C,6.400000*%
%TD*%
%TA.AperFunction,ComponentPad*%
%ADD12R,1.700000X1.700000*%
%TD*%
%TA.AperFunction,ComponentPad*%
%ADD13C,1.700000*%
%TD*%
%TA.AperFunction,SMDPad,CuDef*%
%ADD14RoundRect,0.140000X0.170000X-0.140000X0.170000X0.140000X-0.170000X0.140000X-0.170000X-0.140000X0*%
%TD*%
%TA.AperFunction,SMDPad,CuDef*%
%ADD15RotRect,0.830000X0.270000X45.000000*%
%TD*%
%TA.AperFunction,SMDPad,CuDef*%
%ADD16RotRect,0.270000X0.830000X45.000000*%
%TD*%
%TA.AperFunction,SMDPad,CuDef*%
%ADD17RoundRect,0.140000X-0.140000X-0.170000X0.140000X-0.170000X0.140000X0.170000X-0.140000X0.170000X0*%
%TD*%
%TA.AperFunction,ComponentPad*%
%ADD18C,1.508000*%
%TD*%
%TA.AperFunction,ComponentPad*%
%ADD19R,1.508000X1.508000*%
%TD*%
%TA.AperFunction,SMDPad,CuDef*%
%ADD20RoundRect,0.140000X-0.021213X0.219203X-0.219203X0.021213X0.021213X-0.219203X0.219203X-0.021213X0*%
%TD*%
%TA.AperFunction,ViaPad*%
%ADD21C,0.600000*%
%TD*%
%TA.AperFunction,Conductor*%
%ADD22C,0.200000*%
%TD*%
%TA.AperFunction,Conductor*%
%ADD23C,0.500000*%
%TD*%
G04 APERTURE END LIST*
D10*
%TO.P,C4,1*%
%TO.N,+3V3*%
X127160589Y-91839411D03*
%TO.P,C4,2*%
%TO.N,GND*%
X127839411Y-91160589D03*
%TD*%
D11*
%TO.P,REF\u002A\u002A,1*%
%TO.N,GND*%
X119753446Y-82832340D03*
%TD*%
D12*
%TO.P,J7,1,Pin_1*%
%TO.N,+5V*%
X125253446Y-106332340D03*
D13*
%TO.P,J7,2,Pin_2*%
%TO.N,LED2*%
X127793446Y-106332340D03*
%TO.P,J7,3,Pin_3*%
%TO.N,GND*%
X130333446Y-106332340D03*
%TD*%
D14*
%TO.P,R5,1*%
%TO.N,+3V3*%
X161753446Y-102292340D03*
%TO.P,R5,2*%
%TO.N,SCL*%
X161753446Y-101332340D03*
%TD*%
D12*
%TO.P,J4,1,Pin_1*%
%TO.N,PWM3*%
X137753446Y-83332340D03*
D13*
%TO.P,J4,2,Pin_2*%
%TO.N,+5V*%
X140293446Y-83332340D03*
%TO.P,J4,3,Pin_3*%
%TO.N,GND*%
X142833446Y-83332340D03*
%TD*%
D15*
%TO.P,U2,1,VDD_IO*%
%TO.N,+3V3*%
X159506892Y-95164680D03*
%TO.P,U2,2,NC*%
%TO.N,unconnected-(U2-NC-Pad2)*%
X159860446Y-95518234D03*
%TO.P,U2,3,NC*%
%TO.N,unconnected-(U2-NC-Pad3)*%
X160213999Y-95871787D03*
%TO.P,U2,4,SCL*%
%TO.N,SCL*%
X160567552Y-96225340D03*
%TO.P,U2,5,GND*%
%TO.N,GND*%
X160921106Y-96578894D03*
D16*
%TO.P,U2,6,SDA*%
%TO.N,SDA*%
X161939340Y-96225340D03*
%TO.P,U2,7,SDO*%
%TO.N,+3V3*%
X162292893Y-95871787D03*
%TO.P,U2,8,CS*%
X162646446Y-95518234D03*
D15*
%TO.P,U2,9,I2*%
%TO.N,unconnected-(U2-I2-Pad9)*%
X163000000Y-94500000D03*
%TO.P,U2,10,GND*%
%TO.N,GND*%
X162646446Y-94146446D03*
%TO.P,U2,11,INT*%
%TO.N,unconnected-(U2-INT-Pad11)*%
X162292893Y-93792893D03*
%TO.P,U2,12,GND*%
%TO.N,GND*%
X161939340Y-93439340D03*
%TO.P,U2,13,GND*%
X161585786Y-93085786D03*
D16*
%TO.P,U2,14,VDD*%
%TO.N,+3V3*%
X160567552Y-93439340D03*
%TO.P,U2,15,VDD*%
X160213999Y-93792893D03*
%TO.P,U2,16,GND*%
%TO.N,GND*%
X159860446Y-94146446D03*
%TD*%
D11*
%TO.P,REF\u002A\u002A,1*%
%TO.N,GND*%
X162753446Y-106832340D03*
%TD*%
D12*
%TO.P,J1,1,Pin_1*%
%TO.N,+5V*%
X121753446Y-98057340D03*
D13*
%TO.P,J1,2,Pin_2*%
%TO.N,GND*%
X121753446Y-100597340D03*
%TD*%
D17*
%TO.P,C5,1*%
%TO.N,+5V*%
X133293446Y-106332340D03*
%TO.P,C5,2*%
%TO.N,GND*%
X134253446Y-106332340D03*
%TD*%
D12*
%TO.P,J6,1,Pin_1*%
%TO.N,+5V*%
X125253446Y-83332340D03*
D13*
%TO.P,J6,2,Pin_2*%
%TO.N,LED1*%
X127793446Y-83332340D03*
%TO.P,J6,3,Pin_3*%
%TO.N,GND*%
X130333446Y-83332340D03*
%TD*%
D14*
%TO.P,R6,1*%
%TO.N,+3V3*%
X159253446Y-102312340D03*
%TO.P,R6,2*%
%TO.N,SDA*%
X159253446Y-101352340D03*
%TD*%
D12*
%TO.P,J5,1,Pin_1*%
%TO.N,PWM4*%
X147753446Y-83332340D03*
D13*
%TO.P,J5,2,Pin_2*%
%TO.N,+5V*%
X150293446Y-83332340D03*
%TO.P,J5,3,Pin_3*%
%TO.N,GND*%
X152833446Y-83332340D03*
%TD*%
D12*
%TO.P,J3,1,Pin_1*%
%TO.N,PWM2*%
X147713446Y-106332340D03*
D13*
%TO.P,J3,2,Pin_2*%
%TO.N,+5V*%
X150253446Y-106332340D03*
%TO.P,J3,3,Pin_3*%
%TO.N,GND*%
X152793446Y-106332340D03*
%TD*%
D15*
%TO.P,U3,1,VDD_IO*%
%TO.N,+3V3*%
X126506892Y-95164680D03*
%TO.P,U3,2,NC*%
%TO.N,unconnected-(U3-NC-Pad2)*%
X126860446Y-95518234D03*
%TO.P,U3,3,NC*%
%TO.N,unconnected-(U3-NC-Pad3)*%
X127213999Y-95871787D03*
%TO.P,U3,4,SCL*%
%TO.N,SCL*%
X127567552Y-96225340D03*
%TO.P,U3,5,GND*%
%TO.N,GND*%
X127921106Y-96578894D03*
D16*
%TO.P,U3,6,SDA*%
%TO.N,SDA*%
X128939340Y-96225340D03*
%TO.P,U3,7,SDO*%
%TO.N,GND*%
X129292893Y-95871787D03*
%TO.P,U3,8,CS*%
%TO.N,+3V3*%
X129646446Y-95518234D03*
D15*
%TO.P,U3,9,I2*%
%TO.N,unconnected-(U3-I2-Pad9)*%
X130000000Y-94500000D03*
%TO.P,U3,10,GND*%
%TO.N,GND*%
X129646446Y-94146446D03*
%TO.P,U3,11,INT*%
%TO.N,unconnected-(U3-INT-Pad11)*%
X129292893Y-93792893D03*
%TO.P,U3,12,GND*%
%TO.N,GND*%
X128939340Y-93439340D03*
%TO.P,U3,13,GND*%
X128585786Y-93085786D03*
D16*
%TO.P,U3,14,VDD*%
%TO.N,+3V3*%
X127567552Y-93439340D03*
%TO.P,U3,15,VDD*%
X127213999Y-93792893D03*
%TO.P,U3,16,GND*%
%TO.N,GND*%
X126860446Y-94146446D03*
%TD*%
D10*
%TO.P,C3,1*%
%TO.N,+3V3*%
X130321178Y-96678822D03*
%TO.P,C3,2*%
%TO.N,GND*%
X131000000Y-96000000D03*
%TD*%
D11*
%TO.P,REF\u002A\u002A,1*%
%TO.N,GND*%
X162753446Y-82832340D03*
%TD*%
%TO.P,REF\u002A\u002A,1*%
%TO.N,GND*%
X119753446Y-106832340D03*
%TD*%
D10*
%TO.P,C2,1*%
%TO.N,GND*%
X159000000Y-93000000D03*
%TO.P,C2,2*%
%TO.N,+3V3*%
X159678822Y-92321178D03*
%TD*%
D12*
%TO.P,J8,1,Pin_1*%
%TO.N,reciver*%
X121753446Y-88292340D03*
D13*
%TO.P,J8,2,Pin_2*%
%TO.N,+5V*%
X121753446Y-90832340D03*
%TO.P,J8,3,Pin_3*%
%TO.N,GND*%
X121753446Y-93372340D03*
%TD*%
D12*
%TO.P,J2,1,Pin_1*%
%TO.N,PWM1*%
X137753446Y-106332340D03*
D13*
%TO.P,J2,2,Pin_2*%
%TO.N,+5V*%
X140293446Y-106332340D03*
%TO.P,J2,3,Pin_3*%
%TO.N,GND*%
X142833446Y-106332340D03*
%TD*%
D18*
%TO.P,U1,1,GP1*%
%TO.N,unconnected-(U1-GP1-Pad1)*%
X142713446Y-102452340D03*
%TO.P,U1,2,GP2*%
%TO.N,unconnected-(U1-GP2-Pad2)*%
X145253446Y-102452340D03*
%TO.P,U1,3,GP3*%
%TO.N,unconnected-(U1-GP3-Pad3)*%
X147793446Y-102452340D03*
%TO.P,U1,3V3,3V3(OUT)*%
%TO.N,+3V3*%
X140173446Y-102452340D03*
%TO.P,U1,4,GP4*%
%TO.N,SCL*%
X150333446Y-102452340D03*
%TO.P,U1,5,GP5*%
%TO.N,SDA*%
X152873446Y-102452340D03*
D19*
%TO.P,U1,5V,5V*%
%TO.N,+5V*%
X135093446Y-102452340D03*
D18*
%TO.P,U1,6,GP6*%
%TO.N,unconnected-(U1-GP6-Pad6)*%
X155413446Y-102452340D03*
%TO.P,U1,7,GP7*%
%TO.N,unconnected-(U1-GP7-Pad7)*%
X155413446Y-87212340D03*
%TO.P,U1,8,GP8*%
%TO.N,LED2*%
X152873446Y-87212340D03*
%TO.P,U1,9,GP9*%
%TO.N,LED1*%
X150333446Y-87212340D03*
%TO.P,U1,10,GP10*%
%TO.N,PWM4*%
X147793446Y-87212340D03*
%TO.P,U1,11,GP11*%
%TO.N,PWM3*%
X145253446Y-87212340D03*
%TO.P,U1,12,GP12*%
%TO.N,PWM2*%
X142713446Y-87212340D03*
%TO.P,U1,13,GP13*%
%TO.N,PWM1*%
X140173446Y-87212340D03*
%TO.P,U1,GND,GND*%
%TO.N,GND*%
X137633446Y-102452340D03*
%TO.P,U1,RX,RX*%
%TO.N,reciver*%
X137633446Y-87212340D03*
%TO.P,U1,TX,TX*%
%TO.N,unconnected-(U1-PadTX)*%
X135093446Y-87212340D03*
%TD*%
D20*
%TO.P,C1,1*%
%TO.N,GND*%
X163839411Y-96660589D03*
%TO.P,C1,2*%
%TO.N,+3V3*%
X163160589Y-97339411D03*
%TD*%
D21*
%TO.N,GND*%
X163000000Y-89500000D03*
X158500000Y-109000000D03*
X125000000Y-89500000D03*
X134500000Y-101000000D03*
X131500000Y-89500000D03*
X137000000Y-98000000D03*
X148500000Y-91000000D03*
X156500000Y-108500000D03*
X158500000Y-105000000D03*
X126500000Y-101500000D03*
X157000000Y-105000000D03*
X118000000Y-96500000D03*
X156000000Y-107000000D03*
X125000000Y-97500000D03*
X144500000Y-92000000D03*
X147500000Y-95000000D03*
X133500000Y-83500000D03*
X127500000Y-86000000D03*
X147000000Y-97000000D03*
X159000000Y-104500000D03*
X160500000Y-89000000D03*
X141500000Y-89000000D03*
X142500000Y-93500000D03*
X165453446Y-94500000D03*
X140500000Y-94000000D03*
X153000000Y-109000000D03*
X129000000Y-98000000D03*
X142500000Y-92000000D03*
X134500000Y-109000000D03*
X158000000Y-86000000D03*
X134000000Y-90000000D03*
X163500000Y-91500000D03*
X144000000Y-98500000D03*
X160500000Y-87000000D03*
X141500000Y-97000000D03*
X152000000Y-99500000D03*
X158000000Y-103500000D03*
X134500000Y-84500000D03*
X150000000Y-96500000D03*
X134000000Y-94000000D03*
X125000000Y-87000000D03*
X151000000Y-96000000D03*
X135000000Y-94500000D03*
X129000000Y-89500000D03*
X165000000Y-91500000D03*
X153000000Y-97500000D03*
X161500000Y-87000000D03*
X124500000Y-91000000D03*
X160000000Y-88500000D03*
X155500000Y-93000000D03*
X155500000Y-96000000D03*
X140500000Y-89500000D03*
X163000000Y-102500000D03*
X136000000Y-93000000D03*
X141500000Y-96000000D03*
X151000000Y-99500000D03*
X130000000Y-87000000D03*
X158500000Y-95500000D03*
X154000000Y-97000000D03*
X140000000Y-109000000D03*
X134500000Y-91500000D03*
X125500000Y-109000000D03*
X156000000Y-82500000D03*
X164000000Y-90500000D03*
X153000000Y-99000000D03*
X163000000Y-88000000D03*
X133000000Y-82500000D03*
X134000000Y-108000000D03*
X155500000Y-91500000D03*
X118000000Y-89500000D03*
X129500000Y-90500000D03*
X137000000Y-94500000D03*
X136000000Y-91000000D03*
X156000000Y-89000000D03*
X136000000Y-94000000D03*
X119000000Y-88000000D03*
X150500000Y-90000000D03*
X117500000Y-102500000D03*
X132500000Y-98500000D03*
X140500000Y-97500000D03*
X142000000Y-91000000D03*
X158000000Y-85000000D03*
X154500000Y-95500000D03*
X131500000Y-91000000D03*
X158500000Y-88500000D03*
X161000000Y-98000000D03*
X165000000Y-90000000D03*
X161000000Y-88500000D03*
X154500000Y-93500000D03*
X165000000Y-99500000D03*
X154500000Y-91500000D03*
X128500000Y-108500000D03*
X152000000Y-98500000D03*
X136000000Y-96500000D03*
X118500000Y-93500000D03*
X149500000Y-91500000D03*
X158000000Y-87000000D03*
X133000000Y-90500000D03*
X119000000Y-91000000D03*
X118500000Y-98500000D03*
X152000000Y-108500000D03*
X133000000Y-109000000D03*
X117500000Y-87500000D03*
X136500000Y-97000000D03*
X125000000Y-96000000D03*
X162000000Y-88500000D03*
X150500000Y-109000000D03*
X135500000Y-92000000D03*
X132000000Y-97500000D03*
X165000000Y-93000000D03*
X141500000Y-94000000D03*
X157500000Y-106500000D03*
X151500000Y-93000000D03*
X141000000Y-95000000D03*
X161500000Y-90000000D03*
X151000000Y-91500000D03*
X145000000Y-85000000D03*
X154500000Y-109000000D03*
X149000000Y-89000000D03*
X142500000Y-96500000D03*
X127500000Y-101000000D03*
X132500000Y-108500000D03*
X165000000Y-102500000D03*
X149500000Y-95500000D03*
X144000000Y-93000000D03*
X117500000Y-98500000D03*
X159000000Y-87000000D03*
X156000000Y-84000000D03*
X135000000Y-91000000D03*
X149500000Y-90500000D03*
X126000000Y-99500000D03*
X127000000Y-99500000D03*
X143500000Y-90500000D03*
X135500000Y-90000000D03*
X124500000Y-93000000D03*
X133000000Y-84500000D03*
X160000000Y-90000000D03*
X154500000Y-89500000D03*
X133000000Y-92500000D03*
X148500000Y-97500000D03*
X158000000Y-107500000D03*
X124000000Y-97000000D03*
X147500000Y-89000000D03*
X163000000Y-90500000D03*
X162000000Y-92000000D03*
X130500000Y-109000000D03*
X141500000Y-90000000D03*
X131000000Y-98000000D03*
X148000000Y-90000000D03*
X128000000Y-95000000D03*
X137000000Y-90000000D03*
X128500000Y-87500000D03*
X124000000Y-96000000D03*
X131500000Y-87500000D03*
X134500000Y-96000000D03*
X157500000Y-83000000D03*
X143500000Y-94000000D03*
X117500000Y-94000000D03*
X159500000Y-86000000D03*
X124000000Y-90500000D03*
X132000000Y-92500000D03*
X135000000Y-93000000D03*
X133000000Y-101000000D03*
X133000000Y-91500000D03*
X124000000Y-108500000D03*
X144500000Y-80500000D03*
X159000000Y-85000000D03*
X118000000Y-100000000D03*
X140500000Y-96000000D03*
X151000000Y-89000000D03*
X158000000Y-98000000D03*
X145500000Y-97500000D03*
X140000000Y-92500000D03*
X137500000Y-96000000D03*
X149500000Y-94000000D03*
X150000000Y-92500000D03*
X156000000Y-97000000D03*
X118500000Y-94500000D03*
X130000000Y-89500000D03*
X165000000Y-101000000D03*
X155500000Y-94500000D03*
X122500000Y-103500000D03*
X134000000Y-82000000D03*
X137000000Y-92500000D03*
X119500000Y-98500000D03*
X124500000Y-86000000D03*
X141500000Y-92500000D03*
X130500000Y-90500000D03*
X157500000Y-96500000D03*
X155500000Y-90000000D03*
X147500000Y-94000000D03*
X135000000Y-97500000D03*
X142500000Y-95000000D03*
X119500000Y-103000000D03*
X124500000Y-98500000D03*
X148500000Y-96000000D03*
X151000000Y-81000000D03*
X126000000Y-86000000D03*
X153000000Y-81000000D03*
X136000000Y-95500000D03*
X148500000Y-92500000D03*
X119000000Y-101500000D03*
X132500000Y-89500000D03*
X156000000Y-81000000D03*
X164000000Y-88500000D03*
X127000000Y-108500000D03*
X117500000Y-92000000D03*
X148000000Y-97000000D03*
X124500000Y-95000000D03*
%TO.N,+3V3*%
X155000000Y-99500000D03*
X138000000Y-101000000D03*
X162000000Y-99500000D03*
%TO.N,SCL*%
X128000000Y-98500000D03*
X147500000Y-99000000D03*
%TO.N,SDA*%
X131500000Y-101500000D03*
X160831197Y-99250000D03*
%TD*%
D22*
%TO.N,GND*%
X133000000Y-84500000D02*
X133000000Y-86500000D01*
X162000000Y-92671572D02*
X161585786Y-93085786D01*
X127921106Y-96921106D02*
X129000000Y-98000000D01*
X163792892Y-93000000D02*
X165000000Y-93000000D01*
X160921106Y-97921106D02*
X161000000Y-98000000D01*
X127921106Y-96578894D02*
X127921106Y-96921106D01*
X159000000Y-93000000D02*
X159000000Y-93286000D01*
X128000000Y-95000000D02*
X128500000Y-94500000D01*
X133432900Y-98500000D02*
X132500000Y-98500000D01*
X162646446Y-94146446D02*
X163792892Y-93000000D01*
X159853554Y-94146446D02*
X158500000Y-95500000D01*
X128500000Y-94500000D02*
X128500000Y-93878680D01*
X133000000Y-86500000D02*
X132500000Y-87000000D01*
X161939340Y-93439340D02*
X161585786Y-93085786D01*
X163839411Y-96114035D02*
X165453446Y-94500000D01*
X160921106Y-96578894D02*
X160921106Y-97921106D01*
X127714000Y-95000000D02*
X126860446Y-94146446D01*
X129292893Y-95871787D02*
X128421106Y-95000000D01*
X128500000Y-93878680D02*
X128939340Y-93439340D01*
X137633446Y-102452340D02*
X137385240Y-102452340D01*
X128253446Y-96253446D02*
X128204745Y-96204745D01*
X127921106Y-96578894D02*
X128112025Y-96578894D01*
X128421106Y-95000000D02*
X128000000Y-95000000D01*
X128000000Y-95000000D02*
X127714000Y-95000000D01*
X129646446Y-94146446D02*
X128792892Y-95000000D01*
X128112025Y-96578894D02*
X128253446Y-96437473D01*
X132000000Y-87000000D02*
X131500000Y-87500000D01*
X129275696Y-93102984D02*
X128939340Y-93439340D01*
X131000000Y-94487422D02*
X129615562Y-93102984D01*
X163839411Y-96660589D02*
X163839411Y-96114035D01*
X131000000Y-96000000D02*
X131000000Y-94487422D01*
X137385240Y-102452340D02*
X133432900Y-98500000D01*
X159000000Y-93286000D02*
X159860446Y-94146446D01*
X128939340Y-93439340D02*
X128585786Y-93085786D01*
X159860446Y-94146446D02*
X159853554Y-94146446D01*
X128253446Y-96437473D02*
X128253446Y-96253446D01*
X129615562Y-93102984D02*
X129275696Y-93102984D01*
X162000000Y-92000000D02*
X162000000Y-92671572D01*
X128792892Y-95000000D02*
X128000000Y-95000000D01*
X132500000Y-87000000D02*
X132000000Y-87000000D01*
%TO.N,+3V3*%
X130321178Y-96678822D02*
X132178822Y-96678822D01*
X160567552Y-93439340D02*
X160213999Y-93792893D01*
X158251057Y-96101000D02*
X158251057Y-96598886D01*
X158814736Y-92321178D02*
X159678822Y-92321178D01*
X127567552Y-93439340D02*
X127213999Y-93792893D01*
X129339411Y-91839411D02*
X127160589Y-91839411D01*
X159101000Y-95748943D02*
X158748943Y-96101000D01*
X127213999Y-93792893D02*
X126877643Y-93456537D01*
X130321178Y-96192966D02*
X129646446Y-95518234D01*
X163160589Y-97339411D02*
X163660589Y-97839411D01*
X163160589Y-97339411D02*
X163160589Y-98339411D01*
X132500000Y-95000000D02*
X129339411Y-91839411D01*
X136500000Y-101000000D02*
X138000000Y-101000000D01*
X127160589Y-91839411D02*
X127160589Y-93032377D01*
X130321178Y-96678822D02*
X130321178Y-96192966D01*
X163160589Y-97339411D02*
X163160589Y-96739483D01*
X126170537Y-94828325D02*
X126506892Y-95164680D01*
X132178822Y-96678822D02*
X132500000Y-97000000D01*
X161733446Y-102312340D02*
X161753446Y-102292340D01*
X160567552Y-93439340D02*
X160567552Y-93209908D01*
X126537777Y-93456537D02*
X126170537Y-93823777D01*
X163160589Y-98339411D02*
X162000000Y-99500000D01*
X163160589Y-96739483D02*
X162292893Y-95871787D01*
X158748943Y-96101000D02*
X158251057Y-96101000D01*
X158251057Y-96101000D02*
X157899000Y-95748943D01*
X159506892Y-95164680D02*
X159101000Y-95570572D01*
X132500000Y-97000000D02*
X136500000Y-101000000D01*
X163660589Y-100385197D02*
X161753446Y-102292340D01*
X126877643Y-93456537D02*
X126537777Y-93456537D01*
X159101000Y-95570572D02*
X159101000Y-95748943D01*
X157899000Y-95748943D02*
X157899000Y-93236914D01*
X163660589Y-97839411D02*
X163660589Y-100385197D01*
X126170537Y-93823777D02*
X126170537Y-94828325D01*
X157899000Y-93236914D02*
X158814736Y-92321178D01*
X127160589Y-93032377D02*
X127567552Y-93439340D01*
X155349943Y-99500000D02*
X155000000Y-99500000D01*
X158251057Y-96598886D02*
X155349943Y-99500000D01*
X132500000Y-97000000D02*
X132500000Y-95000000D01*
X162292893Y-95871787D02*
X162646446Y-95518234D01*
X160567552Y-93209908D02*
X159678822Y-92321178D01*
X159253446Y-102312340D02*
X161733446Y-102312340D01*
%TO.N,SCL*%
X147500000Y-99618894D02*
X150333446Y-102452340D01*
X127567552Y-96225340D02*
X127231197Y-96561695D01*
X150333446Y-102452340D02*
X152014446Y-100771340D01*
X127231197Y-97731197D02*
X128000000Y-98500000D01*
X152014446Y-100771340D02*
X161192446Y-100771340D01*
X127231197Y-96561695D02*
X127231197Y-97731197D01*
X160231197Y-96561695D02*
X160567552Y-96225340D01*
X147500000Y-99000000D02*
X147500000Y-99618894D01*
X161192446Y-100771340D02*
X161753446Y-101332340D01*
X160231197Y-99810091D02*
X160231197Y-96561695D01*
X161753446Y-101332340D02*
X160231197Y-99810091D01*
%TO.N,SDA*%
X130000000Y-100000000D02*
X130000000Y-97286000D01*
X131500000Y-101500000D02*
X130000000Y-100000000D01*
X153973446Y-101352340D02*
X159253446Y-101352340D01*
X130000000Y-97286000D02*
X128939340Y-96225340D01*
X160831197Y-99047483D02*
X161939340Y-97939340D01*
X152873446Y-102452340D02*
X153973446Y-101352340D01*
X160831197Y-99250000D02*
X160831197Y-99047483D01*
X161939340Y-97939340D02*
X161939340Y-96225340D01*
%TO.N,PWM4*%
X147753446Y-83332340D02*
X147753446Y-83832340D01*
X147753446Y-83832340D02*
X147793446Y-83872340D01*
X147793446Y-83872340D02*
X147793446Y-87212340D01*
%TO.N,PWM3*%
X140578446Y-86157340D02*
X144198446Y-86157340D01*
X137753446Y-83332340D02*
X140578446Y-86157340D01*
X144198446Y-86157340D02*
X145253446Y-87212340D01*
%TO.N,PWM2*%
X146308446Y-104927340D02*
X147713446Y-106332340D01*
X146308446Y-90807340D02*
X146308446Y-104927340D01*
X142713446Y-87212340D02*
X146308446Y-90807340D01*
D23*
%TO.N,+5V*%
X122253446Y-86332340D02*
X125253446Y-83332340D01*
X148253446Y-108332340D02*
X150253446Y-106332340D01*
X121753446Y-98057340D02*
X125253446Y-101557340D01*
X142293446Y-108332340D02*
X148253446Y-108332340D01*
X135093446Y-102452340D02*
X135093446Y-107172340D01*
X136253446Y-108332340D02*
X138753446Y-108332340D01*
X120452446Y-89531340D02*
X120452446Y-86991340D01*
X138753446Y-108332340D02*
X140293446Y-106792340D01*
X135093446Y-102452340D02*
X129133446Y-102452340D01*
X137793446Y-80832340D02*
X140293446Y-83332340D01*
X140293446Y-83332340D02*
X141594446Y-82031340D01*
X135093446Y-107172340D02*
X136253446Y-108332340D01*
X148992446Y-82031340D02*
X150293446Y-83332340D01*
X125253446Y-83332340D02*
X127753446Y-80832340D01*
X120452446Y-92133340D02*
X121753446Y-90832340D01*
X129133446Y-102452340D02*
X125253446Y-106332340D01*
X121753446Y-98057340D02*
X120452446Y-96756340D01*
X127753446Y-80832340D02*
X137793446Y-80832340D01*
X125253446Y-101557340D02*
X125253446Y-106332340D01*
X121753446Y-90832340D02*
X120452446Y-89531340D01*
X140293446Y-106332340D02*
X142293446Y-108332340D01*
X120452446Y-86991340D02*
X121111446Y-86332340D01*
X120452446Y-96756340D02*
X120452446Y-92133340D01*
X141594446Y-82031340D02*
X148992446Y-82031340D01*
X140293446Y-106792340D02*
X140293446Y-106332340D01*
X121111446Y-86332340D02*
X122253446Y-86332340D01*
D22*
%TO.N,reciver*%
X137633446Y-87212340D02*
X136553446Y-88292340D01*
X136553446Y-88292340D02*
X121753446Y-88292340D01*
%TO.N,PWM1*%
X138753446Y-88632340D02*
X138753446Y-105332340D01*
X138753446Y-105332340D02*
X137753446Y-106332340D01*
X140173446Y-87212340D02*
X138753446Y-88632340D01*
%TD*%
%TA.AperFunction,Conductor*%
%TO.N,GND*%
G36*
X144054892Y-102894882D02*
G01*
X144093928Y-102939933D01*
X144177250Y-103103459D01*
X144180504Y-103109845D01*
X144296561Y-103269586D01*
X144436199Y-103409224D01*
X144534972Y-103480985D01*
X144595945Y-103525284D01*
X144771885Y-103614931D01*
X144888508Y-103652824D01*
X144959682Y-103675950D01*
X145154710Y-103706840D01*
X145154715Y-103706840D01*
X145352182Y-103706840D01*
X145460528Y-103689678D01*
X145547209Y-103675950D01*
X145547220Y-103675946D01*
X145551944Y-103674813D01*
X145552295Y-103676275D01*
X145615457Y-103674465D01*
X145675293Y-103710539D01*
X145706128Y-103773237D01*
X145707946Y-103794394D01*
X145707946Y-104840670D01*
X145707945Y-104840688D01*
X145707945Y-105006394D01*
X145707944Y-105006394D01*
X145709849Y-105013502D01*
X145739669Y-105124792D01*
X145748870Y-105159127D01*
X145759355Y-105177287D01*
X145759356Y-105177289D01*
X145827923Y-105296052D01*
X145827927Y-105296057D01*
X145946795Y-105414925D01*
X145946801Y-105414930D01*
X146326627Y-105794756D01*
X146360112Y-105856079D01*
X146362946Y-105882437D01*
X146362946Y-107230210D01*
X146362947Y-107230216D01*
X146369354Y-107289823D01*
X146415859Y-107414507D01*
X146420843Y-107484199D01*
X146387358Y-107545522D01*
X146326035Y-107579006D01*
X146299677Y-107581840D01*
X143718742Y-107581840D01*
X143651703Y-107562155D01*
X143605948Y-107509351D01*
X143595124Y-107448112D01*
X143595163Y-107447610D01*
X142962854Y-106815302D01*
X143026439Y-106798265D01*
X143140453Y-106732439D01*
X143233545Y-106639347D01*
X143299371Y-106525333D01*
X143316408Y-106461748D01*
X143948716Y-107094057D01*
X143948716Y-107094056D01*
X143988068Y-107039894D01*
X144084541Y-106850557D01*
X144150203Y-106648470D01*
X144150203Y-106648467D01*
X144183446Y-106438586D01*
X144183446Y-106226093D01*
X144150203Y-106016212D01*
X144150203Y-106016209D01*
X144084541Y-105814122D01*
X143988070Y-105624789D01*
X143948716Y-105570622D01*
X143316408Y-106202930D01*
X143299371Y-106139347D01*
X143233545Y-106025333D01*
X143140453Y-105932241D01*
X143026439Y-105866415D01*
X142962855Y-105849377D01*
X143595162Y-105217068D01*
X143540996Y-105177715D01*
X143351663Y-105081244D01*
X143149575Y-105015582D01*
X142939692Y-104982340D01*
X142727200Y-104982340D01*
X142517318Y-105015582D01*
X142517315Y-105015582D01*
X142315228Y-105081244D01*
X142125885Y-105177720D01*
X142071728Y-105217067D01*
X142071728Y-105217068D01*
X142704037Y-105849377D01*
X142640453Y-105866415D01*
X142526439Y-105932241D01*
X142433347Y-106025333D01*
X142367521Y-106139347D01*
X142350483Y-106202931D01*
X141718174Y-105570622D01*
X141718173Y-105570622D01*
X141678826Y-105624780D01*
X141678822Y-105624786D01*
X141674206Y-105633845D01*
X141626227Y-105684637D01*
X141558405Y-105701427D01*
X141492272Y-105678883D01*
X141453240Y-105633833D01*
X141448497Y-105624524D01*
X141448495Y-105624521D01*
X141448494Y-105624519D01*
X141323555Y-105452553D01*
X141173232Y-105302230D01*
X141001266Y-105177291D01*
X140811860Y-105080784D01*
X140811859Y-105080783D01*
X140811858Y-105080783D01*
X140609689Y-105015094D01*
X140609687Y-105015093D01*
X140609686Y-105015093D01*
X140448403Y-104989548D01*
X140399733Y-104981840D01*
X140187159Y-104981840D01*
X140138488Y-104989548D01*
X139977206Y-105015093D01*
X139775031Y-105080784D01*
X139585630Y-105177289D01*
X139550829Y-105202572D01*
X139485022Y-105226050D01*
X139416969Y-105210223D01*
X139368275Y-105160116D01*
X139353946Y-105102252D01*
X139353946Y-103645091D01*
X139373631Y-103578052D01*
X139426435Y-103532297D01*
X139495593Y-103522353D01*
X139534238Y-103534605D01*
X139691885Y-103614931D01*
X139808508Y-103652824D01*
X139879682Y-103675950D01*
X140074710Y-103706840D01*
X140074715Y-103706840D01*
X140272182Y-103706840D01*
X140467209Y-103675950D01*
X140471779Y-103674465D01*
X140655007Y-103614931D01*
X140830947Y-103525284D01*
X140936401Y-103448668D01*
X140990692Y-103409224D01*
X140990694Y-103409221D01*
X140990698Y-103409219D01*
X141130325Y-103269592D01*
X141130327Y-103269588D01*
X141130330Y-103269586D01*
X141246387Y-103109845D01*
X141246388Y-103109844D01*
X141246390Y-103109841D01*
X141332963Y-102939933D01*
X141380936Y-102889140D01*
X141448757Y-102872345D01*
X141514892Y-102894882D01*
X141553928Y-102939933D01*
X141637250Y-103103459D01*
X141640504Y-103109845D01*
X141756561Y-103269586D01*
X141896199Y-103409224D01*
X141994972Y-103480985D01*
X142055945Y-103525284D01*
X142231885Y-103614931D01*
X142348508Y-103652824D01*
X142419682Y-103675950D01*
X142614710Y-103706840D01*
X142614715Y-103706840D01*
X142812182Y-103706840D01*
X143007209Y-103675950D01*
X143011779Y-103674465D01*
X143195007Y-103614931D01*
X143370947Y-103525284D01*
X143476401Y-103448668D01*
X143530692Y-103409224D01*
X143530694Y-103409221D01*
X143530698Y-103409219D01*
X143670325Y-103269592D01*
X143670327Y-103269588D01*
X143670330Y-103269586D01*
X143786387Y-103109845D01*
X143786388Y-103109844D01*
X143786390Y-103109841D01*
X143872963Y-102939933D01*
X143920936Y-102889140D01*
X143988757Y-102872345D01*
X144054892Y-102894882D01*
G37*
%TD.AperFunction*%
%TA.AperFunction,Conductor*%
G36*
X137167521Y-102645333D02*
G01*
X137233347Y-102759347D01*
X137326439Y-102852439D01*
X137440453Y-102918265D01*
X137504035Y-102935302D01*
X136940455Y-103498881D01*
X136940456Y-103498882D01*
X136976201Y-103524852D01*
X136976214Y-103524860D01*
X137152072Y-103614466D01*
X137339799Y-103675463D01*
X137534749Y-103706340D01*
X137732143Y-103706340D01*
X137927092Y-103675463D01*
X137990627Y-103654819D01*
X138060468Y-103652824D01*
X138120301Y-103688904D01*
X138151130Y-103751604D01*
X138152946Y-103772750D01*
X138152946Y-104857840D01*
X138133261Y-104924879D01*
X138080457Y-104970634D01*
X138028946Y-104981840D01*
X136855575Y-104981840D01*
X136855569Y-104981841D01*
X136795962Y-104988248D01*
X136661117Y-105038542D01*
X136661110Y-105038546D01*
X136545901Y-105124792D01*
X136545898Y-105124795D01*
X136459652Y-105240004D01*
X136459648Y-105240011D01*
X136409354Y-105374857D01*
X136402947Y-105434456D01*
X136402946Y-105434475D01*
X136402946Y-107121110D01*
X136383261Y-107188149D01*
X136330457Y-107233904D01*
X136261299Y-107243848D01*
X136197743Y-107214823D01*
X136191265Y-107208791D01*
X135880265Y-106897791D01*
X135846780Y-106836468D01*
X135843946Y-106810110D01*
X135843946Y-103823746D01*
X135863631Y-103756707D01*
X135916435Y-103710952D01*
X135947432Y-103702448D01*
X135947378Y-103702216D01*
X135953890Y-103700676D01*
X135954696Y-103700456D01*
X135954929Y-103700431D01*
X135954935Y-103700429D01*
X136089774Y-103650137D01*
X136089773Y-103650137D01*
X136089777Y-103650136D01*
X136204992Y-103563886D01*
X136291242Y-103448671D01*
X136341537Y-103313823D01*
X136347946Y-103254213D01*
X136347945Y-103198063D01*
X136367628Y-103131027D01*
X136420432Y-103085271D01*
X136489590Y-103075327D01*
X136553146Y-103104351D01*
X136572263Y-103125179D01*
X136586903Y-103145328D01*
X136586903Y-103145329D01*
X137150483Y-102581748D01*
X137167521Y-102645333D01*
G37*
%TD.AperFunction*%
%TA.AperFunction,Conductor*%
G36*
X138063021Y-88413372D02*
G01*
X138064096Y-88413360D01*
X138092883Y-88431380D01*
X138121934Y-88448898D01*
X138122407Y-88449861D01*
X138123319Y-88450432D01*
X138137780Y-88481127D01*
X138152763Y-88511598D01*
X138152791Y-88512986D01*
X138153098Y-88513638D01*
X138153518Y-88548930D01*
X138152945Y-88553282D01*
X138152945Y-88721386D01*
X138152946Y-88721399D01*
X138152946Y-100075500D01*
X138133261Y-100142539D01*
X138080457Y-100188294D01*
X138028946Y-100199500D01*
X137921155Y-100199500D01*
X137766510Y-100230261D01*
X137766498Y-100230264D01*
X137620827Y-100290602D01*
X137620814Y-100290609D01*
X137489125Y-100378602D01*
X137422447Y-100399480D01*
X137420234Y-100399500D01*
X136800097Y-100399500D01*
X136733058Y-100379815D01*
X136712416Y-100363181D01*
X133136819Y-96787584D01*
X133103334Y-96726261D01*
X133100500Y-96699903D01*
X133100500Y-95089059D01*
X133100501Y-95089046D01*
X133100501Y-94920945D01*
X133100501Y-94920943D01*
X133059577Y-94768215D01*
X133001121Y-94666967D01*
X132980520Y-94631284D01*
X132868716Y-94519480D01*
X132868713Y-94519478D01*
X129827001Y-91477766D01*
X129826999Y-91477763D01*
X129708128Y-91358892D01*
X129708123Y-91358888D01*
X129585097Y-91287860D01*
X129585097Y-91287859D01*
X129585094Y-91287858D01*
X129571196Y-91279834D01*
X129418468Y-91238910D01*
X129260354Y-91238910D01*
X129252758Y-91238910D01*
X129252742Y-91238911D01*
X128822614Y-91238911D01*
X128755575Y-91219226D01*
X128709820Y-91166422D01*
X128698614Y-91114911D01*
X128698614Y-91100955D01*
X128698613Y-91100947D01*
X128658402Y-90944336D01*
X128658399Y-90944326D01*
X128580503Y-90802633D01*
X128566874Y-90786676D01*
X128150962Y-91202592D01*
X128124034Y-91217295D01*
X128098216Y-91233888D01*
X128092015Y-91234779D01*
X128089639Y-91236077D01*
X128063281Y-91238911D01*
X127969095Y-91238911D01*
X127902056Y-91219226D01*
X127881414Y-91202592D01*
X127839411Y-91160589D01*
X127800167Y-91199833D01*
X127738843Y-91233317D01*
X127669152Y-91228332D01*
X127624805Y-91199832D01*
X127546550Y-91121577D01*
X127546533Y-91121561D01*
X127518846Y-91097914D01*
X127518842Y-91097911D01*
X127377034Y-91019952D01*
X127367082Y-91017397D01*
X127310243Y-90984975D01*
X127093762Y-90768494D01*
X127093761Y-90768494D01*
X127020422Y-90901898D01*
X127014586Y-90924628D01*
X126978846Y-90984665D01*
X126925323Y-91013891D01*
X126901716Y-91019952D01*
X126759909Y-91097911D01*
X126759905Y-91097914D01*
X126732218Y-91121561D01*
X126732201Y-91121577D01*
X126442755Y-91411023D01*
X126442739Y-91411040D01*
X126419092Y-91438727D01*
X126419089Y-91438731D01*
X126341130Y-91580539D01*
X126300886Y-91737280D01*
X126300886Y-91899115D01*
X126341130Y-92055856D01*
X126410940Y-92182840D01*
X126419091Y-92197667D01*
X126442741Y-92225357D01*
X126523771Y-92306387D01*
X126557255Y-92367708D01*
X126560089Y-92394067D01*
X126560089Y-92733945D01*
X126540404Y-92800984D01*
X126487600Y-92846739D01*
X126466284Y-92852865D01*
X126466571Y-92853933D01*
X126458722Y-92856036D01*
X126458720Y-92856036D01*
X126340192Y-92887796D01*
X126305988Y-92896961D01*
X126169064Y-92976014D01*
X126169059Y-92976018D01*
X125794754Y-93350323D01*
X125794751Y-93350325D01*
X125794752Y-93350326D01*
X125690015Y-93455063D01*
X125690012Y-93455067D01*
X125653450Y-93518396D01*
X125653450Y-93518398D01*
X125610960Y-93591991D01*
X125597318Y-93642901D01*
X125570036Y-93744720D01*
X125570036Y-93744722D01*
X125570036Y-93912823D01*
X125570037Y-93912836D01*
X125570037Y-94741655D01*
X125570036Y-94741673D01*
X125570036Y-94907379D01*
X125570035Y-94907379D01*
X125610961Y-95060114D01*
X125610962Y-95060115D01*
X125628246Y-95090051D01*
X125628248Y-95090054D01*
X125632026Y-95096598D01*
X125648497Y-95164499D01*
X125637433Y-95210106D01*
X125632819Y-95220209D01*
X125632817Y-95220214D01*
X125612337Y-95362670D01*
X125632817Y-95505125D01*
X125632818Y-95505129D01*
X125692604Y-95636040D01*
X125692605Y-95636041D01*
X125692606Y-95636043D01*
X125730225Y-95682726D01*
X125988846Y-95941346D01*
X126031037Y-95975346D01*
X126049778Y-95994087D01*
X126083779Y-96036280D01*
X126342400Y-96294900D01*
X126367690Y-96315280D01*
X126384589Y-96328899D01*
X126403332Y-96347643D01*
X126437320Y-96389820D01*
X126437325Y-96389825D01*
X126437327Y-96389827D01*
X126437332Y-96389833D01*
X126594378Y-96546878D01*
X126609081Y-96573805D01*
X126625671Y-96599616D01*
X126626563Y-96605821D01*
X126627862Y-96608200D01*
X126630696Y-96634550D01*
X126630697Y-96650746D01*
X126630696Y-96650747D01*
X126630697Y-96650754D01*
X126630697Y-97644527D01*
X126630696Y-97644545D01*
X126630696Y-97810251D01*
X126630695Y-97810251D01*
X126639391Y-97842705D01*
X126671620Y-97962982D01*
X126687052Y-97989711D01*
X126700555Y-98013097D01*
X126700556Y-98013101D01*
X126700557Y-98013101D01*
X126750676Y-98099911D01*
X126750678Y-98099914D01*
X126869546Y-98218782D01*
X126869552Y-98218787D01*
X127165425Y-98514660D01*
X127198910Y-98575983D01*
X127199361Y-98578149D01*
X127230261Y-98733491D01*
X127230264Y-98733501D01*
X127290602Y-98879172D01*
X127290609Y-98879185D01*
X127378210Y-99010288D01*
X127378213Y-99010292D01*
X127489707Y-99121786D01*
X127489711Y-99121789D01*
X127620814Y-99209390D01*
X127620827Y-99209397D01*
X127754794Y-99264887D01*
X127766503Y-99269737D01*
X127921153Y-99300499D01*
X127921156Y-99300500D01*
X127921158Y-99300500D01*
X128078844Y-99300500D01*
X128078845Y-99300499D01*
X128233497Y-99269737D01*
X128379179Y-99209394D01*
X128510289Y-99121789D01*
X128621789Y-99010289D01*
X128709394Y-98879179D01*
X128769737Y-98733497D01*
X128800500Y-98578842D01*
X128800500Y-98421158D01*
X128800500Y-98421155D01*
X128800499Y-98421153D01*
X128774531Y-98290606D01*
X128769737Y-98266503D01*
X128764436Y-98253704D01*
X128709397Y-98120827D01*
X128709390Y-98120814D01*
X128621789Y-97989711D01*
X128621786Y-97989707D01*
X128510292Y-97878213D01*
X128510288Y-97878210D01*
X128379185Y-97790609D01*
X128379172Y-97790602D01*
X128233501Y-97730264D01*
X128233491Y-97730261D01*
X128078151Y-97699362D01*
X128061394Y-97690596D01*
X128042916Y-97686577D01*
X128017877Y-97667832D01*
X128016241Y-97666977D01*
X128014662Y-97665426D01*
X127947978Y-97598742D01*
X127914493Y-97537419D01*
X127919477Y-97467727D01*
X127961349Y-97411794D01*
X127984151Y-97398265D01*
X127996215Y-97392755D01*
X127996217Y-97392754D01*
X128042848Y-97355177D01*
X128274659Y-97123366D01*
X128009138Y-96857845D01*
X128004799Y-96849899D01*
X127997552Y-96844474D01*
X127988317Y-96819714D01*
X127975653Y-96796522D01*
X127976298Y-96787492D01*
X127973135Y-96779010D01*
X127978751Y-96753189D01*
X127980637Y-96726830D01*
X127986455Y-96717776D01*
X127987987Y-96710737D01*
X128009130Y-96682493D01*
X128024700Y-96666922D01*
X128086018Y-96633441D01*
X128155710Y-96638425D01*
X128200057Y-96666926D01*
X128465577Y-96932446D01*
X128518964Y-96879060D01*
X128580287Y-96845575D01*
X128649979Y-96850559D01*
X128694326Y-96879058D01*
X128817274Y-97002006D01*
X128863957Y-97039626D01*
X128918029Y-97064320D01*
X128954196Y-97089432D01*
X129163771Y-97299007D01*
X129363181Y-97498416D01*
X129396666Y-97559739D01*
X129399500Y-97586097D01*
X129399500Y-99913330D01*
X129399499Y-99913348D01*
X129399499Y-100079054D01*
X129399498Y-100079054D01*
X129440014Y-100230261D01*
X129440423Y-100231785D01*
X129462335Y-100269737D01*
X129519479Y-100368714D01*
X129519481Y-100368717D01*
X129638349Y-100487585D01*
X129638355Y-100487590D01*
X130640924Y-101490159D01*
X130674409Y-101551482D01*
X130669425Y-101621174D01*
X130627553Y-101677107D01*
X130562089Y-101701524D01*
X130553243Y-101701840D01*
X129059522Y-101701840D01*
X129030688Y-101707574D01*
X129030689Y-101707575D01*
X128914539Y-101730679D01*
X128914535Y-101730680D01*
X128851833Y-101756653D01*
X128777954Y-101787254D01*
X128737091Y-101814558D01*
X128655028Y-101869389D01*
X128655025Y-101869392D01*
X126215627Y-104308791D01*
X126154304Y-104342276D01*
X126084612Y-104337292D01*
X126028679Y-104295420D01*
X126004262Y-104229956D01*
X126003946Y-104221110D01*
X126003946Y-101483419D01*
X125975105Y-101338432D01*
X125975104Y-101338431D01*
X125975104Y-101338427D01*
X125942448Y-101259588D01*
X125918533Y-101201851D01*
X125918526Y-101201838D01*
X125836398Y-101078925D01*
X125804955Y-101047482D01*
X125731862Y-100974389D01*
X123140264Y-98382790D01*
X123106779Y-98321467D01*
X123103945Y-98295109D01*
X123103945Y-97159469D01*
X123103944Y-97159463D01*
X123103836Y-97158462D01*
X123097537Y-97099857D01*
X123079942Y-97052683D01*
X123047243Y-96965011D01*
X123047239Y-96965004D01*
X122960993Y-96849795D01*
X122960990Y-96849792D01*
X122845781Y-96763546D01*
X122845774Y-96763542D01*
X122710928Y-96713248D01*
X122710929Y-96713248D01*
X122651329Y-96706841D01*
X122651327Y-96706840D01*
X122651319Y-96706840D01*
X122651311Y-96706840D01*
X121515676Y-96706840D01*
X121448637Y-96687155D01*
X121427995Y-96670521D01*
X121239265Y-96481791D01*
X121205780Y-96420468D01*
X121202946Y-96394110D01*
X121202946Y-94783616D01*
X121222631Y-94716577D01*
X121275435Y-94670822D01*
X121344593Y-94660878D01*
X121365266Y-94665686D01*
X121437312Y-94689096D01*
X121437318Y-94689097D01*
X121647200Y-94722340D01*
X121859692Y-94722340D01*
X122069573Y-94689097D01*
X122069576Y-94689097D01*
X122271663Y-94623435D01*
X122461000Y-94526962D01*
X122515162Y-94487610D01*
X122515163Y-94487610D01*
X121882855Y-93855302D01*
X121946439Y-93838265D01*
X122060453Y-93772439D01*
X122153545Y-93679347D01*
X122219371Y-93565333D01*
X122236408Y-93501749D01*
X122868716Y-94134057D01*
X122868716Y-94134056D01*
X122908068Y-94079894D01*
X123004541Y-93890557D01*
X123070203Y-93688470D01*
X123070203Y-93688467D01*
X123103446Y-93478586D01*
X123103446Y-93266093D01*
X123070203Y-93056212D01*
X123070203Y-93056209D01*
X123004541Y-92854122D01*
X122908070Y-92664789D01*
X122868716Y-92610622D01*
X122868715Y-92610622D01*
X122236408Y-93242930D01*
X122219371Y-93179347D01*
X122153545Y-93065333D01*
X122060453Y-92972241D01*
X121946439Y-92906415D01*
X121882853Y-92889376D01*
X122515162Y-92257068D01*
X122460993Y-92217713D01*
X122460993Y-92217712D01*
X122451946Y-92213103D01*
X122401152Y-92165128D01*
X122384358Y-92097306D01*
X122406897Y-92031172D01*
X122451954Y-91992133D01*
X122461262Y-91987391D01*
X122561696Y-91914422D01*
X122633232Y-91862449D01*
X122633234Y-91862446D01*
X122633238Y-91862444D01*
X122783550Y-91712132D01*
X122783552Y-91712128D01*
X122783555Y-91712126D01*
X122908494Y-91540160D01*
X122908493Y-91540160D01*
X122908497Y-91540156D01*
X123005003Y-91350752D01*
X123070692Y-91148583D01*
X123103946Y-90938627D01*
X123103946Y-90726053D01*
X123070692Y-90516097D01*
X123037824Y-90414939D01*
X127447316Y-90414939D01*
X127447316Y-90414940D01*
X127839409Y-90807035D01*
X127839410Y-90807035D01*
X128213320Y-90433124D01*
X128213320Y-90433122D01*
X128197372Y-90419500D01*
X128197368Y-90419498D01*
X128055673Y-90341600D01*
X128055663Y-90341597D01*
X127899052Y-90301386D01*
X127737341Y-90301386D01*
X127580722Y-90341599D01*
X127447316Y-90414939D01*
X123037824Y-90414939D01*
X123005003Y-90313928D01*
X122908497Y-90124524D01*
X122908495Y-90124521D01*
X122908494Y-90124519D01*
X122783555Y-89952553D01*
X122670015Y-89839013D01*
X122636530Y-89777690D01*
X122641514Y-89707998D01*
X122683386Y-89652065D01*
X122714361Y-89635150D01*
X122845777Y-89586136D01*
X122960992Y-89499886D01*
X123047242Y-89384671D01*
X123097537Y-89249823D01*
X123103946Y-89190213D01*
X123103946Y-89016840D01*
X123123631Y-88949801D01*
X123176435Y-88904046D01*
X123227946Y-88892840D01*
X136466777Y-88892840D01*
X136466793Y-88892841D01*
X136474389Y-88892841D01*
X136632500Y-88892841D01*
X136632503Y-88892841D01*
X136785231Y-88851917D01*
X136835350Y-88822979D01*
X136922162Y-88772860D01*
X137033966Y-88661056D01*
X137033966Y-88661054D01*
X137044174Y-88650847D01*
X137044175Y-88650844D01*
X137225574Y-88469446D01*
X137286896Y-88435962D01*
X137334667Y-88436475D01*
X137334871Y-88435188D01*
X137534710Y-88466840D01*
X137534715Y-88466840D01*
X137732182Y-88466840D01*
X137871485Y-88444775D01*
X137927209Y-88435950D01*
X137992262Y-88414812D01*
X137993334Y-88414782D01*
X137994231Y-88414191D01*
X138028165Y-88413787D01*
X138062101Y-88412818D01*
X138063021Y-88413372D01*
G37*
%TD.AperFunction*%
%TA.AperFunction,Conductor*%
G36*
X141514892Y-87654882D02*
G01*
X141553928Y-87699933D01*
X141637250Y-87863459D01*
X141640504Y-87869845D01*
X141756561Y-88029586D01*
X141896199Y-88169224D01*
X142045680Y-88277826D01*
X142055945Y-88285284D01*
X142231885Y-88374931D01*
X142348490Y-88412818D01*
X142419682Y-88435950D01*
X142614710Y-88466840D01*
X142614715Y-88466840D01*
X142812182Y-88466840D01*
X143012021Y-88435188D01*
X143012299Y-88436943D01*
X143074434Y-88440032D01*
X143121317Y-88469447D01*
X145671627Y-91019756D01*
X145705112Y-91081079D01*
X145707946Y-91107437D01*
X145707946Y-101110284D01*
X145688261Y-101177323D01*
X145635457Y-101223078D01*
X145566299Y-101233022D01*
X145551992Y-101229697D01*
X145551952Y-101229868D01*
X145547212Y-101228730D01*
X145352182Y-101197840D01*
X145352177Y-101197840D01*
X145154715Y-101197840D01*
X145154710Y-101197840D01*
X144959682Y-101228729D01*
X144771887Y-101289748D01*
X144595941Y-101379398D01*
X144436199Y-101495455D01*
X144296561Y-101635093D01*
X144180504Y-101794835D01*
X144180502Y-101794839D01*
X144099071Y-101954656D01*
X144093931Y-101964743D01*
X144045956Y-102015539D01*
X143978135Y-102032334D01*
X143912000Y-102009796D01*
X143872961Y-101964743D01*
X143786390Y-101794839D01*
X143778932Y-101784574D01*
X143670330Y-101635093D01*
X143530692Y-101495455D01*
X143370950Y-101379398D01*
X143370949Y-101379397D01*
X143370947Y-101379396D01*
X143195007Y-101289749D01*
X143167945Y-101280956D01*
X143007209Y-101228729D01*
X142812182Y-101197840D01*
X142812177Y-101197840D01*
X142614715Y-101197840D01*
X142614710Y-101197840D01*
X142419682Y-101228729D01*
X142231887Y-101289748D01*
X142055941Y-101379398D01*
X141896199Y-101495455D01*
X141756561Y-101635093D01*
X141640504Y-101794835D01*
X141640502Y-101794839D01*
X141559071Y-101954656D01*
X141553931Y-101964743D01*
X141505956Y-102015539D01*
X141438135Y-102032334D01*
X141372000Y-102009796D01*
X141332961Y-101964743D01*
X141246390Y-101794839D01*
X141238932Y-101784574D01*
X141130330Y-101635093D01*
X140990692Y-101495455D01*
X140830950Y-101379398D01*
X140830949Y-101379397D01*
X140830947Y-101379396D01*
X140655007Y-101289749D01*
X140627945Y-101280956D01*
X140467209Y-101228729D01*
X140272182Y-101197840D01*
X140272177Y-101197840D01*
X140074715Y-101197840D01*
X140074710Y-101197840D01*
X139879682Y-101228729D01*
X139691887Y-101289748D01*
X139534241Y-101370073D01*
X139465571Y-101382969D01*
X139400831Y-101356692D01*
X139360574Y-101299586D01*
X139353946Y-101259588D01*
X139353946Y-88932436D01*
X139373631Y-88865397D01*
X139390261Y-88844759D01*
X139765574Y-88469445D01*
X139826895Y-88435962D01*
X139874667Y-88436473D01*
X139874871Y-88435188D01*
X140074710Y-88466840D01*
X140074715Y-88466840D01*
X140272182Y-88466840D01*
X140467209Y-88435950D01*
X140481274Y-88431380D01*
X140655007Y-88374931D01*
X140830947Y-88285284D01*
X140920638Y-88220119D01*
X140990692Y-88169224D01*
X140990694Y-88169221D01*
X140990698Y-88169219D01*
X141130325Y-88029592D01*
X141130327Y-88029588D01*
X141130330Y-88029586D01*
X141246387Y-87869845D01*
X141246388Y-87869844D01*
X141246390Y-87869841D01*
X141332963Y-87699933D01*
X141380936Y-87649140D01*
X141448757Y-87632345D01*
X141514892Y-87654882D01*
G37*
%TD.AperFunction*%
%TA.AperFunction,Conductor*%
G36*
X131945764Y-97299007D02*
G01*
X131966406Y-97315641D01*
X132015139Y-97364374D01*
X132015149Y-97364385D01*
X132019479Y-97368715D01*
X132019480Y-97368716D01*
X132131284Y-97480520D01*
X132131285Y-97480520D01*
X132138352Y-97487587D01*
X132138351Y-97487587D01*
X132138355Y-97487590D01*
X135636924Y-100986159D01*
X135670409Y-101047482D01*
X135665425Y-101117174D01*
X135623553Y-101173107D01*
X135558089Y-101197524D01*
X135549243Y-101197840D01*
X134291575Y-101197840D01*
X134291569Y-101197841D01*
X134231962Y-101204248D01*
X134097117Y-101254542D01*
X134097110Y-101254546D01*
X133981901Y-101340792D01*
X133981898Y-101340795D01*
X133895652Y-101456004D01*
X133895648Y-101456011D01*
X133845354Y-101590856D01*
X133845329Y-101591098D01*
X133845256Y-101591273D01*
X133843572Y-101598402D01*
X133842416Y-101598128D01*
X133818590Y-101655648D01*
X133761197Y-101695495D01*
X133722040Y-101701840D01*
X132424500Y-101701840D01*
X132357461Y-101682155D01*
X132311706Y-101629351D01*
X132300500Y-101577840D01*
X132300500Y-101421155D01*
X132300499Y-101421153D01*
X132288147Y-101359056D01*
X132269737Y-101266503D01*
X132264784Y-101254546D01*
X132209397Y-101120827D01*
X132209390Y-101120814D01*
X132121789Y-100989711D01*
X132121786Y-100989707D01*
X132010292Y-100878213D01*
X132010288Y-100878210D01*
X131879185Y-100790609D01*
X131879172Y-100790602D01*
X131733501Y-100730264D01*
X131733491Y-100730261D01*
X131578149Y-100699361D01*
X131516238Y-100666976D01*
X131514660Y-100665425D01*
X130636819Y-99787584D01*
X130603334Y-99726261D01*
X130600500Y-99699903D01*
X130600500Y-97560370D01*
X130620185Y-97493331D01*
X130646421Y-97464039D01*
X130655036Y-97457055D01*
X130721860Y-97420320D01*
X130749550Y-97396670D01*
X130835156Y-97311063D01*
X130840181Y-97306991D01*
X130866689Y-97295922D01*
X130891901Y-97282156D01*
X130902350Y-97281032D01*
X130904656Y-97280070D01*
X130907163Y-97280515D01*
X130918260Y-97279322D01*
X131878725Y-97279322D01*
X131945764Y-97299007D01*
G37*
%TD.AperFunction*%
%TA.AperFunction,Conductor*%
G36*
X159416672Y-96385019D02*
G01*
X159461016Y-96413517D01*
X159594378Y-96546878D01*
X159627862Y-96608199D01*
X159630696Y-96634558D01*
X159630696Y-96650741D01*
X159630697Y-96650754D01*
X159630697Y-99723421D01*
X159630696Y-99723439D01*
X159630696Y-99889145D01*
X159630695Y-99889145D01*
X159637176Y-99913330D01*
X159664350Y-100014747D01*
X159662688Y-100084596D01*
X159623526Y-100142459D01*
X159559298Y-100169963D01*
X159544576Y-100170840D01*
X155827702Y-100170840D01*
X155806458Y-100164602D01*
X155784371Y-100163023D01*
X155773585Y-100154949D01*
X155760663Y-100151155D01*
X155746164Y-100134423D01*
X155728436Y-100121152D01*
X155723727Y-100108529D01*
X155714908Y-100098351D01*
X155711757Y-100076436D01*
X155704018Y-100055689D01*
X155706881Y-100042526D01*
X155704964Y-100029193D01*
X155714162Y-100009050D01*
X155718869Y-99987415D01*
X155732139Y-99969686D01*
X155733989Y-99965637D01*
X155740019Y-99959161D01*
X155740020Y-99959159D01*
X155747540Y-99951639D01*
X155830463Y-99868716D01*
X155830464Y-99868713D01*
X158731577Y-96967602D01*
X158810634Y-96830670D01*
X158828050Y-96765671D01*
X158829770Y-96762850D01*
X158829862Y-96759543D01*
X158847830Y-96733220D01*
X158864414Y-96706013D01*
X158867945Y-96703753D01*
X158869254Y-96701836D01*
X158877768Y-96697467D01*
X158899463Y-96683586D01*
X158907394Y-96680226D01*
X158980728Y-96660577D01*
X159048302Y-96621563D01*
X159117659Y-96581520D01*
X159229463Y-96469716D01*
X159229464Y-96469714D01*
X159285659Y-96413518D01*
X159346980Y-96380035D01*
X159416672Y-96385019D01*
G37*
%TD.AperFunction*%
%TA.AperFunction,Conductor*%
G36*
X161258174Y-97242366D02*
G01*
X161314107Y-97284238D01*
X161338524Y-97349702D01*
X161338840Y-97358548D01*
X161338840Y-97639243D01*
X161319155Y-97706282D01*
X161302521Y-97726924D01*
X161043378Y-97986067D01*
X160982055Y-98019552D01*
X160912363Y-98014568D01*
X160856430Y-97972696D01*
X160832013Y-97907232D01*
X160831697Y-97898386D01*
X160831697Y-97547579D01*
X160851382Y-97480540D01*
X160904186Y-97434785D01*
X160996210Y-97392759D01*
X160996217Y-97392754D01*
X161042848Y-97355177D01*
X161042852Y-97355173D01*
X161127159Y-97270867D01*
X161188482Y-97237382D01*
X161258174Y-97242366D01*
G37*
%TD.AperFunction*%
%TA.AperFunction,Conductor*%
G36*
X131049053Y-94402295D02*
G01*
X131069694Y-94418929D01*
X131863181Y-95212416D01*
X131877884Y-95239343D01*
X131894477Y-95265162D01*
X131895368Y-95271362D01*
X131896666Y-95273739D01*
X131899500Y-95300097D01*
X131899500Y-95503879D01*
X131879815Y-95570918D01*
X131827011Y-95616673D01*
X131770632Y-95627783D01*
X131727465Y-95626087D01*
X131311551Y-96042003D01*
X131250228Y-96075488D01*
X131223870Y-96078322D01*
X131129684Y-96078322D01*
X131062645Y-96058637D01*
X131042003Y-96042003D01*
X130910903Y-95910903D01*
X130877418Y-95849580D01*
X130882402Y-95779888D01*
X130910903Y-95735541D01*
X131373909Y-95272535D01*
X131373909Y-95272533D01*
X131357961Y-95258911D01*
X131357957Y-95258909D01*
X131216262Y-95181011D01*
X131216252Y-95181008D01*
X131059641Y-95140797D01*
X130897930Y-95140797D01*
X130741310Y-95181011D01*
X130599620Y-95258905D01*
X130599613Y-95258910D01*
X130571945Y-95282541D01*
X130571927Y-95282558D01*
X130528395Y-95326090D01*
X130520449Y-95330428D01*
X130515025Y-95337675D01*
X130490268Y-95346908D01*
X130467072Y-95359575D01*
X130458041Y-95358928D01*
X130449561Y-95362092D01*
X130423739Y-95356474D01*
X130397380Y-95354589D01*
X130388327Y-95348771D01*
X130381288Y-95347240D01*
X130353034Y-95326089D01*
X130300519Y-95273574D01*
X130267034Y-95212251D01*
X130272018Y-95142559D01*
X130300517Y-95098214D01*
X130776666Y-94622066D01*
X130814286Y-94575383D01*
X130869219Y-94455098D01*
X130914974Y-94402294D01*
X130982013Y-94382610D01*
X131049053Y-94402295D01*
G37*
%TD.AperFunction*%
%TA.AperFunction,Conductor*%
G36*
X128283412Y-94095291D02*
G01*
X128307129Y-94096988D01*
X128316571Y-94104056D01*
X128327976Y-94107071D01*
X128355267Y-94129450D01*
X128475668Y-94260999D01*
X128480734Y-94266896D01*
X128516226Y-94310939D01*
X128774847Y-94569559D01*
X128818872Y-94605037D01*
X128824783Y-94610115D01*
X128956334Y-94730517D01*
X128969171Y-94751739D01*
X128985409Y-94770478D01*
X128986937Y-94781107D01*
X128992498Y-94790300D01*
X128991823Y-94815092D01*
X128995353Y-94839636D01*
X128990890Y-94849406D01*
X128990599Y-94860144D01*
X128976630Y-94880633D01*
X128966328Y-94903192D01*
X128960297Y-94909670D01*
X128869779Y-95000188D01*
X128834301Y-95044214D01*
X128815556Y-95062958D01*
X128775182Y-95095493D01*
X128775165Y-95095508D01*
X128741349Y-95129323D01*
X128741349Y-95135291D01*
X128749456Y-95153046D01*
X128764159Y-95179972D01*
X128764363Y-95185691D01*
X128765731Y-95188687D01*
X128765730Y-95223981D01*
X128763774Y-95237582D01*
X128734747Y-95301137D01*
X128675968Y-95338909D01*
X128658688Y-95342668D01*
X128645087Y-95344624D01*
X128575928Y-95334683D01*
X128555130Y-95320243D01*
X128550430Y-95320243D01*
X128516614Y-95354059D01*
X128516609Y-95354065D01*
X128484066Y-95394449D01*
X128471898Y-95407502D01*
X128468166Y-95410967D01*
X128467977Y-95411054D01*
X128421294Y-95448673D01*
X128339526Y-95530440D01*
X128337829Y-95532017D01*
X128308531Y-95546636D01*
X128279802Y-95562324D01*
X128277435Y-95562154D01*
X128275311Y-95563215D01*
X128242758Y-95559674D01*
X128210111Y-95557340D01*
X128207834Y-95555876D01*
X128205851Y-95555661D01*
X128199441Y-95550483D01*
X128165764Y-95528839D01*
X128085607Y-95448682D01*
X128085601Y-95448677D01*
X128085598Y-95448674D01*
X128043406Y-95414673D01*
X128024664Y-95395931D01*
X127990666Y-95353741D01*
X127732045Y-95095121D01*
X127689852Y-95061119D01*
X127677110Y-95049284D01*
X127673982Y-95045940D01*
X127637113Y-95000188D01*
X127545135Y-94908210D01*
X127543723Y-94906701D01*
X127528898Y-94877260D01*
X127513110Y-94848347D01*
X127513262Y-94846210D01*
X127512299Y-94844297D01*
X127515743Y-94811524D01*
X127518094Y-94778655D01*
X127519378Y-94776939D01*
X127519602Y-94774810D01*
X127540216Y-94749103D01*
X127559966Y-94722722D01*
X127561972Y-94721973D01*
X127563313Y-94720302D01*
X127589319Y-94711577D01*
X127636722Y-94664175D01*
X127636732Y-94664165D01*
X127669273Y-94623784D01*
X127688014Y-94605041D01*
X127732045Y-94569560D01*
X127990665Y-94310939D01*
X128024673Y-94268737D01*
X128043400Y-94250011D01*
X128085598Y-94216007D01*
X128176117Y-94125487D01*
X128186466Y-94119835D01*
X128193946Y-94110715D01*
X128216568Y-94103399D01*
X128237437Y-94092004D01*
X128249202Y-94092845D01*
X128260426Y-94089216D01*
X128283412Y-94095291D01*
G37*
%TD.AperFunction*%
%TA.AperFunction,Conductor*%
G36*
X128175271Y-92459596D02*
G01*
X128221026Y-92512400D01*
X128225949Y-92535030D01*
X128681245Y-92990327D01*
X128851304Y-93160386D01*
X128855643Y-93168332D01*
X128862893Y-93173760D01*
X128872126Y-93198519D01*
X128884789Y-93221709D01*
X128884143Y-93230741D01*
X128887307Y-93239225D01*
X128881690Y-93265041D01*
X128879805Y-93291401D01*
X128873984Y-93300456D01*
X128872453Y-93307497D01*
X128851301Y-93335751D01*
X128835744Y-93351307D01*
X128774420Y-93384790D01*
X128704729Y-93379803D01*
X128660385Y-93351304D01*
X128490327Y-93181245D01*
X128041313Y-92732232D01*
X127987925Y-92785619D01*
X127979978Y-92789957D01*
X127974554Y-92797204D01*
X127949794Y-92806438D01*
X127926601Y-92819103D01*
X127917572Y-92818457D01*
X127909090Y-92821621D01*
X127883269Y-92816004D01*
X127856910Y-92814119D01*
X127847856Y-92808300D01*
X127840817Y-92806769D01*
X127812563Y-92785618D01*
X127797408Y-92770463D01*
X127763923Y-92709140D01*
X127761089Y-92682782D01*
X127761089Y-92563911D01*
X127780774Y-92496872D01*
X127833578Y-92451117D01*
X127885089Y-92439911D01*
X128108232Y-92439911D01*
X128175271Y-92459596D01*
G37*
%TD.AperFunction*%
%TA.AperFunction,Conductor*%
G36*
X137498255Y-81602525D02*
G01*
X137518897Y-81619159D01*
X137669897Y-81770159D01*
X137703382Y-81831482D01*
X137698398Y-81901174D01*
X137656526Y-81957107D01*
X137591062Y-81981524D01*
X137582216Y-81981840D01*
X136855575Y-81981840D01*
X136855569Y-81981841D01*
X136795962Y-81988248D01*
X136661117Y-82038542D01*
X136661110Y-82038546D01*
X136545901Y-82124792D01*
X136545898Y-82124795D01*
X136459652Y-82240004D01*
X136459648Y-82240011D01*
X136409354Y-82374857D01*
X136402947Y-82434456D01*
X136402946Y-82434475D01*
X136402946Y-84230210D01*
X136402947Y-84230216D01*
X136409354Y-84289823D01*
X136459648Y-84424668D01*
X136459652Y-84424675D01*
X136545898Y-84539884D01*
X136545901Y-84539887D01*
X136661110Y-84626133D01*
X136661117Y-84626137D01*
X136795963Y-84676431D01*
X136795962Y-84676431D01*
X136802890Y-84677175D01*
X136855573Y-84682840D01*
X138203348Y-84682839D01*
X138270387Y-84702524D01*
X138291029Y-84719158D01*
X139526412Y-85954541D01*
X139559897Y-86015864D01*
X139554913Y-86085556D01*
X139513041Y-86141489D01*
X139511616Y-86142540D01*
X139356200Y-86255455D01*
X139356195Y-86255459D01*
X139216561Y-86395093D01*
X139100504Y-86554835D01*
X139100502Y-86554839D01*
X139059226Y-86635848D01*
X139013931Y-86724743D01*
X138965956Y-86775539D01*
X138898135Y-86792334D01*
X138832000Y-86769796D01*
X138792961Y-86724743D01*
X138706390Y-86554839D01*
X138675937Y-86512924D01*
X138590330Y-86395093D01*
X138450692Y-86255455D01*
X138290950Y-86139398D01*
X138290949Y-86139397D01*
X138290947Y-86139396D01*
X138115007Y-86049749D01*
X138115004Y-86049748D01*
X137927209Y-85988729D01*
X137732182Y-85957840D01*
X137732177Y-85957840D01*
X137534715Y-85957840D01*
X137534710Y-85957840D01*
X137339682Y-85988729D01*
X137151887Y-86049748D01*
X136975941Y-86139398D01*
X136816199Y-86255455D01*
X136676561Y-86395093D01*
X136560504Y-86554835D01*
X136560502Y-86554839D01*
X136519226Y-86635848D01*
X136473931Y-86724743D01*
X136425956Y-86775539D01*
X136358135Y-86792334D01*
X136292000Y-86769796D01*
X136252961Y-86724743D01*
X136166390Y-86554839D01*
X136135937Y-86512924D01*
X136050330Y-86395093D01*
X135910692Y-86255455D01*
X135750950Y-86139398D01*
X135750949Y-86139397D01*
X135750947Y-86139396D01*
X135575007Y-86049749D01*
X135575004Y-86049748D01*
X135387209Y-85988729D01*
X135192182Y-85957840D01*
X135192177Y-85957840D01*
X134994715Y-85957840D01*
X134994710Y-85957840D01*
X134799682Y-85988729D01*
X134611887Y-86049748D01*
X134435941Y-86139398D01*
X134276199Y-86255455D01*
X134136561Y-86395093D01*
X134020504Y-86554835D01*
X133930854Y-86730781D01*
X133869835Y-86918576D01*
X133838946Y-87113603D01*
X133838946Y-87311076D01*
X133869835Y-87506103D01*
X133877445Y-87529522D01*
X133879440Y-87599363D01*
X133843360Y-87659196D01*
X133780659Y-87690024D01*
X133759514Y-87691840D01*
X123227945Y-87691840D01*
X123160906Y-87672155D01*
X123115151Y-87619351D01*
X123103945Y-87567840D01*
X123103945Y-87394469D01*
X123103944Y-87394463D01*
X123097537Y-87334856D01*
X123047243Y-87200011D01*
X123047239Y-87200004D01*
X122960993Y-87084796D01*
X122960994Y-87084796D01*
X122960992Y-87084794D01*
X122847576Y-86999891D01*
X122805707Y-86943959D01*
X122800723Y-86874267D01*
X122834206Y-86812947D01*
X124927994Y-84719157D01*
X124989317Y-84685673D01*
X125015675Y-84682839D01*
X126151317Y-84682839D01*
X126151318Y-84682839D01*
X126210929Y-84676431D01*
X126345777Y-84626136D01*
X126460992Y-84539886D01*
X126547242Y-84424671D01*
X126596256Y-84293256D01*
X126638127Y-84237324D01*
X126703591Y-84212906D01*
X126771864Y-84227757D01*
X126800119Y-84248909D01*
X126913659Y-84362449D01*
X127085625Y-84487388D01*
X127085627Y-84487389D01*
X127085630Y-84487391D01*
X127275034Y-84583897D01*
X127477203Y-84649586D01*
X127687159Y-84682840D01*
X127687160Y-84682840D01*
X127899732Y-84682840D01*
X127899733Y-84682840D01*
X128109689Y-84649586D01*
X128311858Y-84583897D01*
X128501262Y-84487391D01*
X128587584Y-84424675D01*
X128673232Y-84362449D01*
X128673234Y-84362446D01*
X128673238Y-84362444D01*
X128823550Y-84212132D01*
X128823552Y-84212128D01*
X128823555Y-84212126D01*
X128909336Y-84094057D01*
X128948497Y-84040156D01*
X128953239Y-84030848D01*
X129001209Y-83980051D01*
X129069029Y-83963251D01*
X129135165Y-83985785D01*
X129174209Y-84030840D01*
X129178819Y-84039887D01*
X129218174Y-84094056D01*
X129850483Y-83461748D01*
X129867521Y-83525333D01*
X129933347Y-83639347D01*
X130026439Y-83732439D01*
X130140453Y-83798265D01*
X130204036Y-83815302D01*
X129571728Y-84447609D01*
X129571728Y-84447610D01*
X129625895Y-84486964D01*
X129815228Y-84583435D01*
X130017316Y-84649097D01*
X130227200Y-84682340D01*
X130439692Y-84682340D01*
X130649573Y-84649097D01*
X130649576Y-84649097D01*
X130851663Y-84583435D01*
X131041000Y-84486962D01*
X131095162Y-84447610D01*
X131095163Y-84447610D01*
X130462854Y-83815302D01*
X130526439Y-83798265D01*
X130640453Y-83732439D01*
X130733545Y-83639347D01*
X130799371Y-83525333D01*
X130816408Y-83461748D01*
X131448716Y-84094057D01*
X131448716Y-84094056D01*
X131488068Y-84039894D01*
X131584541Y-83850557D01*
X131650203Y-83648470D01*
X131650203Y-83648467D01*
X131683446Y-83438586D01*
X131683446Y-83226093D01*
X131650203Y-83016212D01*
X131650203Y-83016209D01*
X131584541Y-82814122D01*
X131488070Y-82624789D01*
X131448716Y-82570622D01*
X131448715Y-82570622D01*
X130816408Y-83202930D01*
X130799371Y-83139347D01*
X130733545Y-83025333D01*
X130640453Y-82932241D01*
X130526439Y-82866415D01*
X130462855Y-82849377D01*
X131095162Y-82217068D01*
X131040996Y-82177715D01*
X130851663Y-82081244D01*
X130649575Y-82015582D01*
X130439692Y-81982340D01*
X130227200Y-81982340D01*
X130017318Y-82015582D01*
X130017315Y-82015582D01*
X129815228Y-82081244D01*
X129625885Y-82177720D01*
X129571728Y-82217067D01*
X129571728Y-82217068D01*
X130204037Y-82849377D01*
X130140453Y-82866415D01*
X130026439Y-82932241D01*
X129933347Y-83025333D01*
X129867521Y-83139347D01*
X129850483Y-83202931D01*
X129218174Y-82570622D01*
X129218173Y-82570622D01*
X129178826Y-82624780D01*
X129178822Y-82624786D01*
X129174206Y-82633845D01*
X129126227Y-82684637D01*
X129058405Y-82701427D01*
X128992272Y-82678883D01*
X128953240Y-82633833D01*
X128948497Y-82624524D01*
X128948495Y-82624521D01*
X128948494Y-82624519D01*
X128823555Y-82452553D01*
X128673232Y-82302230D01*
X128501266Y-82177291D01*
X128311860Y-82080784D01*
X128311859Y-82080783D01*
X128311858Y-82080783D01*
X128109689Y-82015094D01*
X128109687Y-82015093D01*
X128109685Y-82015093D01*
X127937731Y-81987858D01*
X127926352Y-81982464D01*
X127913795Y-81981566D01*
X127895382Y-81967782D01*
X127874596Y-81957929D01*
X127867940Y-81947240D01*
X127857861Y-81939695D01*
X127849822Y-81918142D01*
X127837665Y-81898617D01*
X127837844Y-81886027D01*
X127833445Y-81874230D01*
X127838334Y-81851753D01*
X127838663Y-81828755D01*
X127845975Y-81816628D01*
X127848297Y-81805957D01*
X127869440Y-81777713D01*
X128027997Y-81619156D01*
X128089319Y-81585674D01*
X128115676Y-81582840D01*
X137431216Y-81582840D01*
X137498255Y-81602525D01*
G37*
%TD.AperFunction*%
%TA.AperFunction,Conductor*%
G36*
X146345985Y-82801525D02*
G01*
X146391740Y-82854329D01*
X146402946Y-82905840D01*
X146402946Y-84230210D01*
X146402947Y-84230216D01*
X146409354Y-84289823D01*
X146459648Y-84424668D01*
X146459652Y-84424675D01*
X146545898Y-84539884D01*
X146545901Y-84539887D01*
X146661110Y-84626133D01*
X146661117Y-84626137D01*
X146706064Y-84642901D01*
X146795963Y-84676431D01*
X146855573Y-84682840D01*
X147068946Y-84682839D01*
X147135985Y-84702523D01*
X147181740Y-84755327D01*
X147192946Y-84806839D01*
X147192946Y-86035022D01*
X147173261Y-86102061D01*
X147139121Y-86135479D01*
X147139886Y-86136532D01*
X146976199Y-86255455D01*
X146836561Y-86395093D01*
X146720504Y-86554835D01*
X146720502Y-86554839D01*
X146679226Y-86635848D01*
X146633931Y-86724743D01*
X146585956Y-86775539D01*
X146518135Y-86792334D01*
X146452000Y-86769796D01*
X146412961Y-86724743D01*
X146326390Y-86554839D01*
X146295937Y-86512924D01*
X146210330Y-86395093D01*
X146070692Y-86255455D01*
X145910950Y-86139398D01*
X145910949Y-86139397D01*
X145910947Y-86139396D01*
X145735007Y-86049749D01*
X145735004Y-86049748D01*
X145547209Y-85988729D01*
X145352182Y-85957840D01*
X145352177Y-85957840D01*
X145154715Y-85957840D01*
X145154710Y-85957840D01*
X144954871Y-85989492D01*
X144954595Y-85987753D01*
X144951811Y-85987612D01*
X144942100Y-85991235D01*
X144917511Y-85985886D01*
X144892382Y-85984621D01*
X144882142Y-85978191D01*
X144873827Y-85976383D01*
X144845573Y-85955232D01*
X144686036Y-85795695D01*
X144686034Y-85795692D01*
X144567163Y-85676821D01*
X144567155Y-85676815D01*
X144452606Y-85610681D01*
X144452606Y-85610680D01*
X144452601Y-85610679D01*
X144444795Y-85606171D01*
X144430232Y-85597763D01*
X144392049Y-85587532D01*
X144277503Y-85556839D01*
X144119389Y-85556839D01*
X144111793Y-85556839D01*
X144111777Y-85556840D01*
X140878543Y-85556840D01*
X140811504Y-85537155D01*
X140790862Y-85520521D01*
X140164862Y-84894521D01*
X140131377Y-84833198D01*
X140136361Y-84763506D01*
X140178233Y-84707573D01*
X140243697Y-84683156D01*
X140252543Y-84682840D01*
X140399732Y-84682840D01*
X140399733Y-84682840D01*
X140609689Y-84649586D01*
X140811858Y-84583897D01*
X141001262Y-84487391D01*
X141087584Y-84424675D01*
X141173232Y-84362449D01*
X141173234Y-84362446D01*
X141173238Y-84362444D01*
X141323550Y-84212132D01*
X141323552Y-84212128D01*
X141323555Y-84212126D01*
X141409336Y-84094057D01*
X141448497Y-84040156D01*
X141453239Y-84030848D01*
X141501209Y-83980051D01*
X141569029Y-83963251D01*
X141635165Y-83985785D01*
X141674209Y-84030840D01*
X141678819Y-84039887D01*
X141718174Y-84094056D01*
X142350482Y-83461747D01*
X142367521Y-83525333D01*
X142433347Y-83639347D01*
X142526439Y-83732439D01*
X142640453Y-83798265D01*
X142704036Y-83815302D01*
X142071728Y-84447609D01*
X142071728Y-84447610D01*
X142125895Y-84486964D01*
X142315228Y-84583435D01*
X142517316Y-84649097D01*
X142727200Y-84682340D01*
X142939692Y-84682340D01*
X143149573Y-84649097D01*
X143149576Y-84649097D01*
X143351663Y-84583435D01*
X143541000Y-84486962D01*
X143595162Y-84447610D01*
X143595163Y-84447610D01*
X142962854Y-83815302D01*
X143026439Y-83798265D01*
X143140453Y-83732439D01*
X143233545Y-83639347D01*
X143299371Y-83525333D01*
X143316408Y-83461749D01*
X143948716Y-84094057D01*
X143948716Y-84094056D01*
X143988068Y-84039894D01*
X144084541Y-83850557D01*
X144150203Y-83648470D01*
X144150203Y-83648467D01*
X144183446Y-83438586D01*
X144183446Y-83226093D01*
X144150203Y-83016212D01*
X144150203Y-83016209D01*
X144126792Y-82944158D01*
X144124797Y-82874317D01*
X144160877Y-82814484D01*
X144223578Y-82783656D01*
X144244723Y-82781840D01*
X146278946Y-82781840D01*
X146345985Y-82801525D01*
G37*
%TD.AperFunction*%
%TA.AperFunction,Conductor*%
G36*
X162756682Y-79833010D02*
G01*
X163060495Y-79848935D01*
X163073370Y-79850289D01*
X163370658Y-79897378D01*
X163383330Y-79900072D01*
X163674061Y-79977978D01*
X163686371Y-79981978D01*
X163967360Y-80089843D01*
X163979209Y-80095119D01*
X164247381Y-80231764D01*
X164258601Y-80238242D01*
X164424898Y-80346239D01*
X164511019Y-80402169D01*
X164521519Y-80409798D01*
X164755409Y-80599204D01*
X164765054Y-80607889D01*
X164977863Y-80820702D01*
X164986541Y-80830339D01*
X165175954Y-81064252D01*
X165183568Y-81074731D01*
X165347493Y-81327159D01*
X165353971Y-81338379D01*
X165410024Y-81448392D01*
X165490605Y-81606547D01*
X165495883Y-81618404D01*
X165603739Y-81899387D01*
X165607750Y-81911731D01*
X165685638Y-82202428D01*
X165688337Y-82215124D01*
X165735416Y-82512391D01*
X165736772Y-82525299D01*
X165752775Y-82830739D01*
X165752945Y-82837225D01*
X165752945Y-82866415D01*
X165752945Y-82898226D01*
X165752945Y-82898228D01*
X165752946Y-82908220D01*
X165752946Y-106829086D01*
X165752776Y-106835577D01*
X165736851Y-107139379D01*
X165735494Y-107152287D01*
X165688411Y-107449539D01*
X165685713Y-107462235D01*
X165607812Y-107752956D01*
X165603801Y-107765299D01*
X165495943Y-108046274D01*
X165490664Y-108058131D01*
X165354028Y-108326291D01*
X165347538Y-108337531D01*
X165183622Y-108589939D01*
X165175993Y-108600440D01*
X164986583Y-108834341D01*
X164977898Y-108843986D01*
X164765089Y-109056796D01*
X164755444Y-109065481D01*
X164521548Y-109254887D01*
X164511048Y-109262516D01*
X164258635Y-109426436D01*
X164247395Y-109432925D01*
X163979232Y-109569563D01*
X163967374Y-109574843D01*
X163686395Y-109682703D01*
X163674052Y-109686713D01*
X163383349Y-109764610D01*
X163370653Y-109767309D01*
X163073392Y-109814394D01*
X163060484Y-109815751D01*
X162756796Y-109831670D01*
X162750305Y-109831840D01*
X119826940Y-109831840D01*
X119819335Y-109831839D01*
X119819332Y-109831839D01*
X119789010Y-109831839D01*
X119756679Y-109831839D01*
X119756678Y-109831838D01*
X119750193Y-109831669D01*
X119446396Y-109815752D01*
X119433488Y-109814396D01*
X119136211Y-109767316D01*
X119123515Y-109764617D01*
X118832810Y-109686727D01*
X118820466Y-109682717D01*
X118539470Y-109574857D01*
X118527623Y-109569582D01*
X118259446Y-109432943D01*
X118248218Y-109426461D01*
X117995796Y-109262541D01*
X117985295Y-109254912D01*
X117985264Y-109254887D01*
X117751388Y-109065502D01*
X117741743Y-109056817D01*
X117528929Y-108844008D01*
X117520244Y-108834363D01*
X117330833Y-108600465D01*
X117323204Y-108589965D01*
X117261896Y-108495562D01*
X117159272Y-108337539D01*
X117152794Y-108326319D01*
X117016148Y-108058146D01*
X117010872Y-108046294D01*
X116903005Y-107765300D01*
X116898997Y-107752966D01*
X116821092Y-107462235D01*
X116818399Y-107449567D01*
X116771309Y-107152275D01*
X116769955Y-107139401D01*
X116754116Y-106837217D01*
X116753946Y-106830726D01*
X116753946Y-106711051D01*
X117902946Y-106711051D01*
X117902946Y-106953628D01*
X117933820Y-107188149D01*
X117934608Y-107194129D01*
X117944277Y-107230213D01*
X117997393Y-107428444D01*
X118090219Y-107652545D01*
X118090223Y-107652554D01*
X118104858Y-107677903D01*
X118211510Y-107862629D01*
X118211512Y-107862632D01*
X118211513Y-107862633D01*
X118359179Y-108055076D01*
X118359185Y-108055083D01*
X118530702Y-108226600D01*
X118530708Y-108226605D01*
X118723157Y-108374276D01*
X118933234Y-108495564D01*
X119157346Y-108588394D01*
X119391657Y-108651178D01*
X119572032Y-108674924D01*
X119632157Y-108682840D01*
X119632158Y-108682840D01*
X119874735Y-108682840D01*
X119922834Y-108676507D01*
X120115235Y-108651178D01*
X120349546Y-108588394D01*
X120573658Y-108495564D01*
X120783735Y-108374276D01*
X120976184Y-108226605D01*
X121147711Y-108055078D01*
X121295382Y-107862629D01*
X121416670Y-107652552D01*
X121509500Y-107428440D01*
X121572284Y-107194129D01*
X121603946Y-106953628D01*
X121603946Y-106711052D01*
X121572284Y-106470551D01*
X121509500Y-106236240D01*
X121416670Y-106012128D01*
X121295382Y-105802051D01*
X121166303Y-105633832D01*
X121147712Y-105609603D01*
X121147706Y-105609596D01*
X120976189Y-105438079D01*
X120976182Y-105438073D01*
X120783739Y-105290407D01*
X120783738Y-105290406D01*
X120783735Y-105290404D01*
X120573658Y-105169116D01*
X120551930Y-105160116D01*
X120349550Y-105076287D01*
X120208685Y-105038542D01*
X120115235Y-105013502D01*
X120115234Y-105013501D01*
X120115231Y-105013501D01*
X119874735Y-104981840D01*
X119874734Y-104981840D01*
X119632158Y-104981840D01*
X119632157Y-104981840D01*
X119391660Y-105013501D01*
X119157341Y-105076287D01*
X118933240Y-105169113D01*
X118933231Y-105169117D01*
X118723152Y-105290407D01*
X118530709Y-105438073D01*
X118530702Y-105438079D01*
X118359185Y-105609596D01*
X118359179Y-105609603D01*
X118211513Y-105802046D01*
X118090223Y-106012125D01*
X118090219Y-106012134D01*
X117997393Y-106236235D01*
X117934607Y-106470554D01*
X117902946Y-106711051D01*
X116753946Y-106711051D01*
X116753946Y-89605260D01*
X119701945Y-89605260D01*
X119730786Y-89750247D01*
X119730789Y-89750257D01*
X119787360Y-89886832D01*
X119820258Y-89936067D01*
X119820259Y-89936070D01*
X119869492Y-90009754D01*
X119869498Y-90009761D01*
X120383270Y-90523532D01*
X120416755Y-90584855D01*
X120418062Y-90630611D01*
X120402946Y-90726047D01*
X120402946Y-90938631D01*
X120418062Y-91034066D01*
X120409108Y-91103360D01*
X120383270Y-91141146D01*
X119869495Y-91654921D01*
X119825559Y-91720676D01*
X119825560Y-91720677D01*
X119787360Y-91777848D01*
X119730789Y-91914422D01*
X119730786Y-91914432D01*
X119701946Y-92059419D01*
X119701946Y-92059422D01*
X119701946Y-96830258D01*
X119701946Y-96830260D01*
X119701945Y-96830260D01*
X119730786Y-96975247D01*
X119730789Y-96975257D01*
X119787358Y-97111828D01*
X119787366Y-97111843D01*
X119818517Y-97158462D01*
X119818519Y-97158465D01*
X119869489Y-97234750D01*
X119869493Y-97234755D01*
X120366627Y-97731889D01*
X120400112Y-97793212D01*
X120402946Y-97819570D01*
X120402946Y-98955210D01*
X120402947Y-98955216D01*
X120409354Y-99014823D01*
X120459648Y-99149668D01*
X120459652Y-99149675D01*
X120545898Y-99264884D01*
X120545901Y-99264887D01*
X120661110Y-99351133D01*
X120661117Y-99351137D01*
X120706064Y-99367901D01*
X120795963Y-99401431D01*
X120855573Y-99407840D01*
X120866131Y-99407839D01*
X120933169Y-99427519D01*
X120953818Y-99444158D01*
X121624037Y-100114377D01*
X121560453Y-100131415D01*
X121446439Y-100197241D01*
X121353347Y-100290333D01*
X121287521Y-100404347D01*
X121270483Y-100467931D01*
X120638174Y-99835622D01*
X120638173Y-99835622D01*
X120598826Y-99889779D01*
X120502350Y-100079122D01*
X120436688Y-100281209D01*
X120436688Y-100281212D01*
X120403446Y-100491093D01*
X120403446Y-100703586D01*
X120436688Y-100913467D01*
X120436688Y-100913470D01*
X120502350Y-101115557D01*
X120598821Y-101304890D01*
X120638174Y-101359056D01*
X121270483Y-100726748D01*
X121287521Y-100790333D01*
X121353347Y-100904347D01*
X121446439Y-100997439D01*
X121560453Y-101063265D01*
X121624036Y-101080302D01*
X120991728Y-101712609D01*
X120991728Y-101712610D01*
X121045895Y-101751964D01*
X121235228Y-101848435D01*
X121437316Y-101914097D01*
X121647200Y-101947340D01*
X121859692Y-101947340D01*
X122069573Y-101914097D01*
X122069576Y-101914097D01*
X122271663Y-101848435D01*
X122461000Y-101751962D01*
X122515162Y-101712610D01*
X122515163Y-101712610D01*
X121882854Y-101080302D01*
X121946439Y-101063265D01*
X122060453Y-100997439D01*
X122153545Y-100904347D01*
X122219371Y-100790333D01*
X122236408Y-100726748D01*
X122868716Y-101359057D01*
X122868716Y-101359056D01*
X122908068Y-101304894D01*
X123004541Y-101115557D01*
X123070203Y-100913470D01*
X123070203Y-100913467D01*
X123097490Y-100741188D01*
X123127419Y-100678054D01*
X123186730Y-100641122D01*
X123256593Y-100642120D01*
X123307644Y-100672905D01*
X124466627Y-101831888D01*
X124500112Y-101893211D01*
X124502946Y-101919569D01*
X124502946Y-104857840D01*
X124483261Y-104924879D01*
X124430457Y-104970634D01*
X124378951Y-104981840D01*
X124355578Y-104981840D01*
X124355569Y-104981841D01*
X124295962Y-104988248D01*
X124161117Y-105038542D01*
X124161110Y-105038546D01*
X124045901Y-105124792D01*
X124045898Y-105124795D01*
X123959652Y-105240004D01*
X123959648Y-105240011D01*
X123909354Y-105374857D01*
X123902947Y-105434456D01*
X123902946Y-105434475D01*
X123902946Y-107230210D01*
X123902947Y-107230216D01*
X123909354Y-107289823D01*
X123959648Y-107424668D01*
X123959652Y-107424675D01*
X124045898Y-107539884D01*
X124045901Y-107539887D01*
X124161110Y-107626133D01*
X124161117Y-107626137D01*
X124295963Y-107676431D01*
X124295962Y-107676431D01*
X124302890Y-107677175D01*
X124355573Y-107682840D01*
X126151318Y-107682839D01*
X126210929Y-107676431D01*
X126345777Y-107626136D01*
X126460992Y-107539886D01*
X126547242Y-107424671D01*
X126596256Y-107293256D01*
X126638127Y-107237324D01*
X126703591Y-107212906D01*
X126771864Y-107227757D01*
X126800119Y-107248909D01*
X126913659Y-107362449D01*
X127085625Y-107487388D01*
X127085627Y-107487389D01*
X127085630Y-107487391D01*
X127275034Y-107583897D01*
X127477203Y-107649586D01*
X127687159Y-107682840D01*
X127687160Y-107682840D01*
X127899732Y-107682840D01*
X127899733Y-107682840D01*
X128109689Y-107649586D01*
X128311858Y-107583897D01*
X128501262Y-107487391D01*
X128544504Y-107455974D01*
X128673232Y-107362449D01*
X128673234Y-107362446D01*
X128673238Y-107362444D01*
X128823550Y-107212132D01*
X128823552Y-107212128D01*
X128823555Y-107212126D01*
X128890961Y-107119347D01*
X128948497Y-107040156D01*
X128953239Y-107030848D01*
X129001209Y-106980051D01*
X129069029Y-106963251D01*
X129135165Y-106985785D01*
X129174209Y-107030840D01*
X129178819Y-107039887D01*
X129218174Y-107094056D01*
X129850483Y-106461748D01*
X129867521Y-106525333D01*
X129933347Y-106639347D01*
X130026439Y-106732439D01*
X130140453Y-106798265D01*
X130204036Y-106815302D01*
X129571728Y-107447609D01*
X129571728Y-107447610D01*
X129625895Y-107486964D01*
X129815228Y-107583435D01*
X130017316Y-107649097D01*
X130227200Y-107682340D01*
X130439692Y-107682340D01*
X130649573Y-107649097D01*
X130649576Y-107649097D01*
X130851663Y-107583435D01*
X131041000Y-107486962D01*
X131095162Y-107447610D01*
X131095163Y-107447610D01*
X130462854Y-106815302D01*
X130526439Y-106798265D01*
X130640453Y-106732439D01*
X130733545Y-106639347D01*
X130799371Y-106525333D01*
X130816408Y-106461748D01*
X131448716Y-107094057D01*
X131448716Y-107094056D01*
X131488068Y-107039894D01*
X131584541Y-106850557D01*
X131650203Y-106648470D01*
X131650203Y-106648467D01*
X131683446Y-106438586D01*
X131683446Y-106226093D01*
X131665789Y-106114613D01*
X131663101Y-106097642D01*
X132512946Y-106097642D01*
X132512946Y-106567037D01*
X132515802Y-106603331D01*
X132515803Y-106603337D01*
X132560950Y-106758730D01*
X132560951Y-106758733D01*
X132643327Y-106898024D01*
X132643333Y-106898032D01*
X132757753Y-107012452D01*
X132757757Y-107012455D01*
X132757759Y-107012457D01*
X132897051Y-107094834D01*
X132938033Y-107106740D01*
X133052448Y-107139982D01*
X133052451Y-107139982D01*
X133052453Y-107139983D01*
X133088756Y-107142840D01*
X133088764Y-107142840D01*
X133498128Y-107142840D01*
X133498136Y-107142840D01*
X133534439Y-107139983D01*
X133534441Y-107139982D01*
X133534443Y-107139982D01*
X133575421Y-107128076D01*
X133689841Y-107094834D01*
X133710815Y-107082429D01*
X133778534Y-107065246D01*
X133837059Y-107082430D01*
X133857249Y-107094371D01*
X134003446Y-107136844D01*
X134003446Y-106830692D01*
X134020713Y-106767573D01*
X134025940Y-106758735D01*
X134039794Y-106711052D01*
X134071088Y-106603337D01*
X134071089Y-106603331D01*
X134073945Y-106567037D01*
X134073946Y-106567030D01*
X134073946Y-106097650D01*
X134071089Y-106061347D01*
X134056789Y-106012128D01*
X134025941Y-105905948D01*
X134025938Y-105905940D01*
X134020712Y-105897103D01*
X134003446Y-105833985D01*
X134003446Y-105527834D01*
X134003444Y-105527833D01*
X133857255Y-105570305D01*
X133857252Y-105570307D01*
X133837054Y-105582252D01*
X133769330Y-105599432D01*
X133710816Y-105582250D01*
X133689843Y-105569847D01*
X133689836Y-105569844D01*
X133534443Y-105524697D01*
X133534437Y-105524696D01*
X133498143Y-105521840D01*
X133498136Y-105521840D01*
X133088756Y-105521840D01*
X133088748Y-105521840D01*
X133052454Y-105524696D01*
X133052448Y-105524697D01*
X132897055Y-105569844D01*
X132897052Y-105569845D01*
X132757761Y-105652221D01*
X132757753Y-105652227D01*
X132643333Y-105766647D01*
X132643327Y-105766655D01*
X132560951Y-105905946D01*
X132560950Y-105905949D01*
X132515803Y-106061342D01*
X132515802Y-106061348D01*
X132512946Y-106097642D01*
X131663101Y-106097642D01*
X131650203Y-106016212D01*
X131650203Y-106016209D01*
X131584541Y-105814122D01*
X131488070Y-105624789D01*
X131448716Y-105570622D01*
X131448715Y-105570622D01*
X130816408Y-106202930D01*
X130799371Y-106139347D01*
X130733545Y-106025333D01*
X130640453Y-105932241D01*
X130526439Y-105866415D01*
X130462855Y-105849377D01*
X131095162Y-105217068D01*
X131040996Y-105177715D01*
X130851663Y-105081244D01*
X130649575Y-105015582D01*
X130439692Y-104982340D01*
X130227200Y-104982340D01*
X130017318Y-105015582D01*
X130017315Y-105015582D01*
X129815228Y-105081244D01*
X129625885Y-105177720D01*
X129571728Y-105217067D01*
X129571728Y-105217068D01*
X130204037Y-105849377D01*
X130140453Y-105866415D01*
X130026439Y-105932241D01*
X129933347Y-106025333D01*
X129867521Y-106139347D01*
X129850483Y-106202931D01*
X129218174Y-105570622D01*
X129218173Y-105570622D01*
X129178826Y-105624780D01*
X129178822Y-105624786D01*
X129174206Y-105633845D01*
X129126227Y-105684637D01*
X129058405Y-105701427D01*
X128992272Y-105678883D01*
X128953240Y-105633833D01*
X128948497Y-105624524D01*
X128948495Y-105624521D01*
X128948494Y-105624519D01*
X128823555Y-105452553D01*
X128673232Y-105302230D01*
X128501266Y-105177291D01*
X128311860Y-105080784D01*
X128311859Y-105080783D01*
X128311858Y-105080783D01*
X128109689Y-105015094D01*
X128109687Y-105015093D01*
X128109685Y-105015093D01*
X127937731Y-104987858D01*
X127874596Y-104957929D01*
X127837665Y-104898617D01*
X127838663Y-104828755D01*
X127869446Y-104777706D01*
X129407994Y-103239159D01*
X129469317Y-103205674D01*
X129495675Y-103202840D01*
X133722040Y-103202840D01*
X133789079Y-103222525D01*
X133834834Y-103275329D01*
X133843337Y-103306326D01*
X133843570Y-103306272D01*
X133845109Y-103312784D01*
X133845329Y-103313590D01*
X133845346Y-103313746D01*
X133845355Y-103313826D01*
X133895648Y-103448668D01*
X133895652Y-103448675D01*
X133981898Y-103563884D01*
X133981901Y-103563887D01*
X134097110Y-103650133D01*
X134097117Y-103650137D01*
X134231957Y-103700429D01*
X134231963Y-103700431D01*
X134232191Y-103700455D01*
X134232359Y-103700524D01*
X134239508Y-103702214D01*
X134239234Y-103703371D01*
X134296742Y-103727186D01*
X134336596Y-103784574D01*
X134342946Y-103823745D01*
X134342946Y-107246258D01*
X134342946Y-107246260D01*
X134342945Y-107246260D01*
X134371786Y-107391247D01*
X134371789Y-107391257D01*
X134428358Y-107527828D01*
X134428364Y-107527839D01*
X134438385Y-107542835D01*
X134438387Y-107542840D01*
X134510492Y-107650754D01*
X134510498Y-107650761D01*
X135775030Y-108915292D01*
X135775032Y-108915294D01*
X135797868Y-108930551D01*
X135848716Y-108964526D01*
X135897951Y-108997424D01*
X135954526Y-109020858D01*
X136034534Y-109053999D01*
X136150687Y-109077103D01*
X136169914Y-109080927D01*
X136179527Y-109082840D01*
X136179528Y-109082840D01*
X138827366Y-109082840D01*
X138935062Y-109061417D01*
X138972359Y-109053998D01*
X139108941Y-108997424D01*
X139158175Y-108964526D01*
X139231862Y-108915292D01*
X140435765Y-107711387D01*
X140497088Y-107677903D01*
X140566780Y-107682887D01*
X140611127Y-107711388D01*
X141710495Y-108810756D01*
X141815029Y-108915290D01*
X141815031Y-108915292D01*
X141937944Y-108997420D01*
X141937957Y-108997427D01*
X142074528Y-109053996D01*
X142074533Y-109053998D01*
X142074537Y-109053998D01*
X142074538Y-109053999D01*
X142219525Y-109082840D01*
X142219528Y-109082840D01*
X148327366Y-109082840D01*
X148435062Y-109061417D01*
X148472359Y-109053998D01*
X148608941Y-108997424D01*
X148658175Y-108964526D01*
X148731862Y-108915292D01*
X149944639Y-107702512D01*
X150005960Y-107669029D01*
X150051711Y-107667722D01*
X150147159Y-107682840D01*
X150147161Y-107682840D01*
X150359732Y-107682840D01*
X150359733Y-107682840D01*
X150569689Y-107649586D01*
X150771858Y-107583897D01*
X150961262Y-107487391D01*
X151004504Y-107455974D01*
X151133232Y-107362449D01*
X151133234Y-107362446D01*
X151133238Y-107362444D01*
X151283550Y-107212132D01*
X151283552Y-107212128D01*
X151283555Y-107212126D01*
X151350961Y-107119347D01*
X151408497Y-107040156D01*
X151413239Y-107030848D01*
X151461209Y-106980051D01*
X151529029Y-106963251D01*
X151595165Y-106985785D01*
X151634209Y-107030840D01*
X151638819Y-107039887D01*
X151678174Y-107094056D01*
X152310483Y-106461748D01*
X152327521Y-106525333D01*
X152393347Y-106639347D01*
X152486439Y-106732439D01*
X152600453Y-106798265D01*
X152664036Y-106815302D01*
X152031728Y-107447609D01*
X152031728Y-107447610D01*
X152085895Y-107486964D01*
X152275228Y-107583435D01*
X152477316Y-107649097D01*
X152687200Y-107682340D01*
X152899692Y-107682340D01*
X153109573Y-107649097D01*
X153109576Y-107649097D01*
X153311663Y-107583435D01*
X153501000Y-107486962D01*
X153555162Y-107447610D01*
X153555163Y-107447610D01*
X152922854Y-106815302D01*
X152986439Y-106798265D01*
X153100453Y-106732439D01*
X153193545Y-106639347D01*
X153259371Y-106525333D01*
X153276408Y-106461749D01*
X153908716Y-107094057D01*
X153908716Y-107094056D01*
X153948068Y-107039894D01*
X154044541Y-106850557D01*
X154089869Y-106711051D01*
X160902946Y-106711051D01*
X160902946Y-106953628D01*
X160933820Y-107188149D01*
X160934608Y-107194129D01*
X160944277Y-107230213D01*
X160997393Y-107428444D01*
X161090219Y-107652545D01*
X161090223Y-107652554D01*
X161104858Y-107677903D01*
X161211510Y-107862629D01*
X161211512Y-107862632D01*
X161211513Y-107862633D01*
X161359179Y-108055076D01*
X161359185Y-108055083D01*
X161530702Y-108226600D01*
X161530708Y-108226605D01*
X161723157Y-108374276D01*
X161933234Y-108495564D01*
X162157346Y-108588394D01*
X162391657Y-108651178D01*
X162572032Y-108674924D01*
X162632157Y-108682840D01*
X162632158Y-108682840D01*
X162874735Y-108682840D01*
X162922834Y-108676507D01*
X163115235Y-108651178D01*
X163349546Y-108588394D01*
X163573658Y-108495564D01*
X163783735Y-108374276D01*
X163976184Y-108226605D01*
X164147711Y-108055078D01*
X164295382Y-107862629D01*
X164416670Y-107652552D01*
X164509500Y-107428440D01*
X164572284Y-107194129D01*
X164603946Y-106953628D01*
X164603946Y-106711052D01*
X164572284Y-106470551D01*
X164509500Y-106236240D01*
X164416670Y-106012128D01*
X164295382Y-105802051D01*
X164166303Y-105633832D01*
X164147712Y-105609603D01*
X164147706Y-105609596D01*
X163976189Y-105438079D01*
X163976182Y-105438073D01*
X163783739Y-105290407D01*
X163783738Y-105290406D01*
X163783735Y-105290404D01*
X163573658Y-105169116D01*
X163551930Y-105160116D01*
X163349550Y-105076287D01*
X163208685Y-105038542D01*
X163115235Y-105013502D01*
X163115234Y-105013501D01*
X163115231Y-105013501D01*
X162874735Y-104981840D01*
X162874734Y-104981840D01*
X162632158Y-104981840D01*
X162632157Y-104981840D01*
X162391660Y-105013501D01*
X162157341Y-105076287D01*
X161933240Y-105169113D01*
X161933231Y-105169117D01*
X161723152Y-105290407D01*
X161530709Y-105438073D01*
X161530702Y-105438079D01*
X161359185Y-105609596D01*
X161359179Y-105609603D01*
X161211513Y-105802046D01*
X161090223Y-106012125D01*
X161090219Y-106012134D01*
X160997393Y-106236235D01*
X160934607Y-106470554D01*
X160902946Y-106711051D01*
X154089869Y-106711051D01*
X154103638Y-106668675D01*
X154103638Y-106668673D01*
X154110204Y-106648464D01*
X154143446Y-106438586D01*
X154143446Y-106226093D01*
X154110203Y-106016212D01*
X154110203Y-106016209D01*
X154044541Y-105814122D01*
X153948070Y-105624789D01*
X153908716Y-105570622D01*
X153908715Y-105570622D01*
X153276408Y-106202930D01*
X153259371Y-106139347D01*
X153193545Y-106025333D01*
X153100453Y-105932241D01*
X152986439Y-105866415D01*
X152922855Y-105849377D01*
X153555162Y-105217068D01*
X153500996Y-105177715D01*
X153311663Y-105081244D01*
X153109575Y-105015582D01*
X152899692Y-104982340D01*
X152687200Y-104982340D01*
X152477318Y-105015582D01*
X152477315Y-105015582D01*
X152275228Y-105081244D01*
X152085885Y-105177720D01*
X152031728Y-105217067D01*
X152031728Y-105217068D01*
X152664037Y-105849377D01*
X152600453Y-105866415D01*
X152486439Y-105932241D01*
X152393347Y-106025333D01*
X152327521Y-106139347D01*
X152310483Y-106202931D01*
X151678174Y-105570622D01*
X151678173Y-105570622D01*
X151638826Y-105624780D01*
X151638822Y-105624786D01*
X151634206Y-105633845D01*
X151586227Y-105684637D01*
X151518405Y-105701427D01*
X151452272Y-105678883D01*
X151413240Y-105633833D01*
X151408497Y-105624524D01*
X151408495Y-105624521D01*
X151408494Y-105624519D01*
X151283555Y-105452553D01*
X151133232Y-105302230D01*
X150961266Y-105177291D01*
X150771860Y-105080784D01*
X150771859Y-105080783D01*
X150771858Y-105080783D01*
X150569689Y-105015094D01*
X150569687Y-105015093D01*
X150569686Y-105015093D01*
X150408403Y-104989548D01*
X150359733Y-104981840D01*
X150147159Y-104981840D01*
X150098488Y-104989548D01*
X149937206Y-105015093D01*
X149735031Y-105080784D01*
X149545625Y-105177291D01*
X149373661Y-105302229D01*
X149260119Y-105415771D01*
X149198796Y-105449255D01*
X149129104Y-105444271D01*
X149073171Y-105402399D01*
X149056256Y-105371422D01*
X149007243Y-105240011D01*
X149007239Y-105240004D01*
X148920993Y-105124795D01*
X148920990Y-105124792D01*
X148805781Y-105038546D01*
X148805774Y-105038542D01*
X148670928Y-104988248D01*
X148670929Y-104988248D01*
X148611329Y-104981841D01*
X148611327Y-104981840D01*
X148611319Y-104981840D01*
X148611311Y-104981840D01*
X147263543Y-104981840D01*
X147196504Y-104962155D01*
X147175862Y-104945521D01*
X146945265Y-104714924D01*
X146911780Y-104653601D01*
X146908946Y-104627243D01*
X146908946Y-103603723D01*
X146928631Y-103536684D01*
X146981435Y-103490929D01*
X147050593Y-103480985D01*
X147105831Y-103503405D01*
X147121925Y-103515098D01*
X147135943Y-103525283D01*
X147135945Y-103525284D01*
X147311885Y-103614931D01*
X147428508Y-103652824D01*
X147499682Y-103675950D01*
X147694710Y-103706840D01*
X147694715Y-103706840D01*
X147892182Y-103706840D01*
X148087209Y-103675950D01*
X148091779Y-103674465D01*
X148275007Y-103614931D01*
X148450947Y-103525284D01*
X148556401Y-103448668D01*
X148610692Y-103409224D01*
X148610694Y-103409221D01*
X148610698Y-103409219D01*
X148750325Y-103269592D01*
X148750327Y-103269588D01*
X148750330Y-103269586D01*
X148866387Y-103109845D01*
X148866388Y-103109844D01*
X148866390Y-103109841D01*
X148952963Y-102939933D01*
X149000936Y-102889140D01*
X149068757Y-102872345D01*
X149134892Y-102894882D01*
X149173928Y-102939933D01*
X149257250Y-103103459D01*
X149260504Y-103109845D01*
X149376561Y-103269586D01*
X149516199Y-103409224D01*
X149614972Y-103480985D01*
X149675945Y-103525284D01*
X149851885Y-103614931D01*
X149968508Y-103652824D01*
X150039682Y-103675950D01*
X150234710Y-103706840D01*
X150234715Y-103706840D01*
X150432182Y-103706840D01*
X150627209Y-103675950D01*
X150631779Y-103674465D01*
X150815007Y-103614931D01*
X150990947Y-103525284D01*
X151096401Y-103448668D01*
X151150692Y-103409224D01*
X151150694Y-103409221D01*
X151150698Y-103409219D01*
X151290325Y-103269592D01*
X151290327Y-103269588D01*
X151290330Y-103269586D01*
X151406387Y-103109845D01*
X151406388Y-103109844D01*
X151406390Y-103109841D01*
X151492963Y-102939933D01*
X151540936Y-102889140D01*
X151608757Y-102872345D01*
X151674892Y-102894882D01*
X151713928Y-102939933D01*
X151797250Y-103103459D01*
X151800504Y-103109845D01*
X151916561Y-103269586D01*
X152056199Y-103409224D01*
X152154972Y-103480985D01*
X152215945Y-103525284D01*
X152391885Y-103614931D01*
X152508508Y-103652824D01*
X152579682Y-103675950D01*
X152774710Y-103706840D01*
X152774715Y-103706840D01*
X152972182Y-103706840D01*
X153167209Y-103675950D01*
X153171779Y-103674465D01*
X153355007Y-103614931D01*
X153530947Y-103525284D01*
X153636401Y-103448668D01*
X153690692Y-103409224D01*
X153690694Y-103409221D01*
X153690698Y-103409219D01*
X153830325Y-103269592D01*
X153830327Y-103269588D01*
X153830330Y-103269586D01*
X153946387Y-103109845D01*
X153946388Y-103109844D01*
X153946390Y-103109841D01*
X154032963Y-102939933D01*
X154080936Y-102889140D01*
X154148757Y-102872345D01*
X154214892Y-102894882D01*
X154253928Y-102939933D01*
X154337250Y-103103459D01*
X154340504Y-103109845D01*
X154456561Y-103269586D01*
X154596199Y-103409224D01*
X154694972Y-103480985D01*
X154755945Y-103525284D01*
X154931885Y-103614931D01*
X155048508Y-103652824D01*
X155119682Y-103675950D01*
X155314710Y-103706840D01*
X155314715Y-103706840D01*
X155512182Y-103706840D01*
X155707209Y-103675950D01*
X155711779Y-103674465D01*
X155895007Y-103614931D01*
X156070947Y-103525284D01*
X156176401Y-103448668D01*
X156230692Y-103409224D01*
X156230694Y-103409221D01*
X156230698Y-103409219D01*
X156370325Y-103269592D01*
X156370327Y-103269588D01*
X156370330Y-103269586D01*
X156422291Y-103198067D01*
X156486390Y-103109841D01*
X156576037Y-102933901D01*
X156637056Y-102746103D01*
X156646143Y-102688730D01*
X156667946Y-102551076D01*
X156667946Y-102353603D01*
X156637055Y-102158573D01*
X156622949Y-102115157D01*
X156620954Y-102045316D01*
X156657035Y-101985484D01*
X156719736Y-101954656D01*
X156740880Y-101952840D01*
X158320987Y-101952840D01*
X158388026Y-101972525D01*
X158433781Y-102025329D01*
X158444605Y-102086568D01*
X158442946Y-102107642D01*
X158442946Y-102517037D01*
X158445802Y-102553331D01*
X158445803Y-102553337D01*
X158490950Y-102708730D01*
X158490951Y-102708733D01*
X158573327Y-102848024D01*
X158573333Y-102848032D01*
X158687753Y-102962452D01*
X158687757Y-102962455D01*
X158687759Y-102962457D01*
X158827051Y-103044834D01*
X158868033Y-103056740D01*
X158982448Y-103089982D01*
X158982451Y-103089982D01*
X158982453Y-103089983D01*
X159018756Y-103092840D01*
X159018764Y-103092840D01*
X159488128Y-103092840D01*
X159488136Y-103092840D01*
X159524439Y-103089983D01*
X159524441Y-103089982D01*
X159524443Y-103089982D01*
X159583448Y-103072839D01*
X159679841Y-103044834D01*
X159819133Y-102962457D01*
X159819138Y-102962452D01*
X159832432Y-102949159D01*
X159893755Y-102915674D01*
X159920113Y-102912840D01*
X161107122Y-102912840D01*
X161174161Y-102932525D01*
X161183122Y-102938860D01*
X161187756Y-102942454D01*
X161187759Y-102942457D01*
X161327051Y-103024834D01*
X161368033Y-103036740D01*
X161482448Y-103069982D01*
X161482451Y-103069982D01*
X161482453Y-103069983D01*
X161518756Y-103072840D01*
X161518764Y-103072840D01*
X161988128Y-103072840D01*
X161988136Y-103072840D01*
X162024439Y-103069983D01*
X162024441Y-103069982D01*
X162024443Y-103069982D01*
X162065421Y-103058076D01*
X162179841Y-103024834D01*
X162319133Y-102942457D01*
X162433563Y-102828027D01*
X162515940Y-102688735D01*
X162561089Y-102533333D01*
X162563946Y-102497030D01*
X162563946Y-102382436D01*
X162583631Y-102315397D01*
X162600260Y-102294760D01*
X164019095Y-100875924D01*
X164019100Y-100875921D01*
X164029303Y-100865717D01*
X164029305Y-100865717D01*
X164141109Y-100753913D01*
X164220166Y-100616981D01*
X164261089Y-100464254D01*
X164261089Y-97928471D01*
X164261090Y-97928458D01*
X164261090Y-97760355D01*
X164261090Y-97760354D01*
X164220166Y-97607627D01*
X164197951Y-97569149D01*
X164181478Y-97501248D01*
X164204331Y-97435222D01*
X164230723Y-97411730D01*
X164231505Y-97406237D01*
X164015024Y-97189756D01*
X163982600Y-97132909D01*
X163982079Y-97130882D01*
X163980047Y-97122966D01*
X163967342Y-97099856D01*
X163902088Y-96981157D01*
X163902087Y-96981155D01*
X163878437Y-96953465D01*
X163878422Y-96953449D01*
X163800167Y-96875194D01*
X163766682Y-96813871D01*
X163771666Y-96744179D01*
X163773679Y-96739125D01*
X163806965Y-96660588D01*
X164192964Y-96660588D01*
X164192964Y-96660589D01*
X164585058Y-97052683D01*
X164585059Y-97052682D01*
X164658399Y-96919278D01*
X164658402Y-96919270D01*
X164698613Y-96762658D01*
X164698614Y-96762653D01*
X164698614Y-96600955D01*
X164698613Y-96600947D01*
X164658402Y-96444336D01*
X164658399Y-96444326D01*
X164580503Y-96302633D01*
X164566874Y-96286676D01*
X164192964Y-96660588D01*
X163806965Y-96660588D01*
X163816623Y-96637801D01*
X163755975Y-96577153D01*
X163723883Y-96521572D01*
X163721490Y-96512640D01*
X163723149Y-96442793D01*
X163753582Y-96392862D01*
X164213320Y-95933124D01*
X164213320Y-95933122D01*
X164197372Y-95919500D01*
X164197368Y-95919498D01*
X164055673Y-95841600D01*
X164055663Y-95841597D01*
X163899052Y-95801386D01*
X163737344Y-95801386D01*
X163693699Y-95812592D01*
X163623870Y-95810197D01*
X163566422Y-95770430D01*
X163540125Y-95710133D01*
X163536185Y-95682731D01*
X163520520Y-95573767D01*
X163515218Y-95562158D01*
X163460732Y-95442851D01*
X163460731Y-95442849D01*
X163423121Y-95396178D01*
X163423110Y-95396165D01*
X163300519Y-95273574D01*
X163267034Y-95212251D01*
X163272018Y-95142559D01*
X163300517Y-95098214D01*
X163776666Y-94622066D01*
X163814286Y-94575383D01*
X163816950Y-94569551D01*
X163874073Y-94444469D01*
X163874072Y-94444469D01*
X163874074Y-94444467D01*
X163894555Y-94302010D01*
X163874074Y-94159553D01*
X163862430Y-94134057D01*
X163814287Y-94028639D01*
X163814286Y-94028638D01*
X163814286Y-94028637D01*
X163776667Y-93981954D01*
X163518046Y-93723334D01*
X163474783Y-93688470D01*
X163474019Y-93687854D01*
X163455276Y-93669111D01*
X163422732Y-93628727D01*
X163388907Y-93594902D01*
X163382935Y-93594902D01*
X163365191Y-93603005D01*
X163338254Y-93617713D01*
X163332542Y-93617916D01*
X163329551Y-93619283D01*
X163294257Y-93619284D01*
X163280657Y-93617329D01*
X163217101Y-93588306D01*
X163179325Y-93529529D01*
X163175564Y-93512247D01*
X163173607Y-93498633D01*
X163183550Y-93429478D01*
X163197989Y-93408681D01*
X163197989Y-93403983D01*
X163164172Y-93370166D01*
X163164165Y-93370160D01*
X163123781Y-93337616D01*
X163105037Y-93318871D01*
X163069566Y-93274854D01*
X163069554Y-93274841D01*
X162810946Y-93016234D01*
X162810940Y-93016228D01*
X162778799Y-92990327D01*
X162766908Y-92980744D01*
X162748168Y-92962003D01*
X162715630Y-92921626D01*
X162715619Y-92921613D01*
X162681802Y-92887796D01*
X162675830Y-92887796D01*
X162658090Y-92895897D01*
X162631151Y-92910607D01*
X162625436Y-92910811D01*
X162622443Y-92912178D01*
X162587149Y-92912178D01*
X162559946Y-92908267D01*
X162496390Y-92879243D01*
X162458615Y-92820465D01*
X162458615Y-92750595D01*
X162489912Y-92697847D01*
X162490882Y-92696876D01*
X162457059Y-92663054D01*
X162414840Y-92629032D01*
X162396094Y-92610286D01*
X162362071Y-92568066D01*
X162328247Y-92534242D01*
X161776704Y-93085784D01*
X161851305Y-93160386D01*
X161855644Y-93168333D01*
X161862893Y-93173760D01*
X161872125Y-93198517D01*
X161884789Y-93221709D01*
X161884143Y-93230741D01*
X161887307Y-93239225D01*
X161881690Y-93265041D01*
X161879805Y-93291401D01*
X161873984Y-93300456D01*
X161872453Y-93307497D01*
X161851301Y-93335751D01*
X161835744Y-93351307D01*
X161774420Y-93384790D01*
X161704729Y-93379803D01*
X161660385Y-93351304D01*
X161490327Y-93181245D01*
X161041313Y-92732232D01*
X160990473Y-92732232D01*
X160969354Y-92726030D01*
X160947397Y-92724509D01*
X160933220Y-92715420D01*
X160923434Y-92712547D01*
X160916804Y-92704896D01*
X160902792Y-92695913D01*
X160748191Y-92541312D01*
X161232232Y-92541312D01*
X161232232Y-92541313D01*
X161585786Y-92894867D01*
X161585787Y-92894867D01*
X162137329Y-92343323D01*
X162103508Y-92309502D01*
X162056877Y-92271925D01*
X162056870Y-92271920D01*
X161926097Y-92212198D01*
X161926089Y-92212196D01*
X161783776Y-92191736D01*
X161641462Y-92212196D01*
X161641454Y-92212198D01*
X161510681Y-92271920D01*
X161510674Y-92271925D01*
X161464038Y-92309506D01*
X161232232Y-92541312D01*
X160748191Y-92541312D01*
X160574844Y-92367965D01*
X160541359Y-92306642D01*
X160538525Y-92280284D01*
X160538525Y-92261481D01*
X160538524Y-92261473D01*
X160498280Y-92104732D01*
X160420321Y-91962924D01*
X160420320Y-91962922D01*
X160396670Y-91935232D01*
X160396655Y-91935216D01*
X160064783Y-91603344D01*
X160064766Y-91603328D01*
X160037079Y-91579681D01*
X160037075Y-91579678D01*
X159895267Y-91501719D01*
X159738526Y-91461475D01*
X159738523Y-91461475D01*
X159576695Y-91461475D01*
X159576691Y-91461475D01*
X159419950Y-91501719D01*
X159278142Y-91579678D01*
X159278138Y-91579681D01*
X159250451Y-91603328D01*
X159250447Y-91603332D01*
X159209934Y-91643845D01*
X159169419Y-91684360D01*
X159108099Y-91717844D01*
X159081740Y-91720678D01*
X158893793Y-91720678D01*
X158735678Y-91720678D01*
X158582951Y-91761601D01*
X158558213Y-91775883D01*
X158551584Y-91779711D01*
X158551583Y-91779710D01*
X158446023Y-91840655D01*
X158446018Y-91840659D01*
X157418481Y-92868196D01*
X157418479Y-92868199D01*
X157387605Y-92921676D01*
X157387604Y-92921678D01*
X157339423Y-93005128D01*
X157336449Y-93016227D01*
X157298499Y-93157857D01*
X157298499Y-93157859D01*
X157298499Y-93325960D01*
X157298500Y-93325973D01*
X157298500Y-95662273D01*
X157298499Y-95662291D01*
X157298499Y-95827997D01*
X157298498Y-95827997D01*
X157298499Y-95828000D01*
X157339423Y-95980728D01*
X157339424Y-95980730D01*
X157339423Y-95980730D01*
X157351773Y-96002119D01*
X157351774Y-96002121D01*
X157418475Y-96117652D01*
X157418481Y-96117660D01*
X157563083Y-96262262D01*
X157596568Y-96323585D01*
X157591584Y-96393277D01*
X157563083Y-96437624D01*
X155311180Y-98689526D01*
X155249857Y-98723011D01*
X155199307Y-98723462D01*
X155078844Y-98699500D01*
X155078842Y-98699500D01*
X154921158Y-98699500D01*
X154921155Y-98699500D01*
X154766510Y-98730261D01*
X154766498Y-98730264D01*
X154620827Y-98790602D01*
X154620814Y-98790609D01*
X154489711Y-98878210D01*
X154489707Y-98878213D01*
X154378213Y-98989707D01*
X154378210Y-98989711D01*
X154290609Y-99120814D01*
X154290602Y-99120827D01*
X154230264Y-99266498D01*
X154230261Y-99266510D01*
X154199500Y-99421153D01*
X154199500Y-99578846D01*
X154230261Y-99733489D01*
X154230264Y-99733501D01*
X154290602Y-99879172D01*
X154290609Y-99879185D01*
X154356602Y-99977949D01*
X154377480Y-100044626D01*
X154358996Y-100112006D01*
X154307017Y-100158697D01*
X154253500Y-100170840D01*
X152101115Y-100170840D01*
X152101099Y-100170839D01*
X152093503Y-100170839D01*
X151935389Y-100170839D01*
X151836857Y-100197241D01*
X151782656Y-100211764D01*
X151782655Y-100211765D01*
X151732542Y-100240699D01*
X151732541Y-100240700D01*
X151689135Y-100265760D01*
X151645731Y-100290819D01*
X151645728Y-100290821D01*
X151533924Y-100402626D01*
X150741317Y-101195232D01*
X150679994Y-101228717D01*
X150632224Y-101228208D01*
X150632021Y-101229492D01*
X150432182Y-101197840D01*
X150432177Y-101197840D01*
X150234715Y-101197840D01*
X150234710Y-101197840D01*
X150034872Y-101229492D01*
X150034596Y-101227753D01*
X149972383Y-101224621D01*
X149925574Y-101195232D01*
X148238728Y-99508386D01*
X148205243Y-99447063D01*
X148210227Y-99377371D01*
X148211828Y-99373301D01*
X148269737Y-99233497D01*
X148300500Y-99078842D01*
X148300500Y-98921158D01*
X148300500Y-98921155D01*
X148300499Y-98921153D01*
X148274531Y-98790606D01*
X148269737Y-98766503D01*
X148256062Y-98733489D01*
X148209397Y-98620827D01*
X148209390Y-98620814D01*
X148121789Y-98489711D01*
X148121786Y-98489707D01*
X148010292Y-98378213D01*
X148010288Y-98378210D01*
X147879185Y-98290609D01*
X147879172Y-98290602D01*
X147733501Y-98230264D01*
X147733489Y-98230261D01*
X147578845Y-98199500D01*
X147578842Y-98199500D01*
X147421158Y-98199500D01*
X147421155Y-98199500D01*
X147266510Y-98230261D01*
X147266498Y-98230264D01*
X147120827Y-98290602D01*
X147120814Y-98290609D01*
X147101837Y-98303290D01*
X147035159Y-98324168D01*
X146967779Y-98305683D01*
X146921089Y-98253704D01*
X146908946Y-98200188D01*
X146908946Y-90896400D01*
X146908947Y-90896387D01*
X146908947Y-90728284D01*
X146882775Y-90630611D01*
X146868023Y-90575556D01*
X146833695Y-90516097D01*
X146788970Y-90438630D01*
X146788964Y-90438622D01*
X145023516Y-88673174D01*
X144990031Y-88611851D01*
X144995015Y-88542159D01*
X145036887Y-88486226D01*
X145102351Y-88461809D01*
X145130596Y-88463019D01*
X145134375Y-88463618D01*
X145154712Y-88466840D01*
X145154715Y-88466840D01*
X145352182Y-88466840D01*
X145547209Y-88435950D01*
X145561274Y-88431380D01*
X145735007Y-88374931D01*
X145910947Y-88285284D01*
X146000638Y-88220119D01*
X146070692Y-88169224D01*
X146070694Y-88169221D01*
X146070698Y-88169219D01*
X146210325Y-88029592D01*
X146210327Y-88029588D01*
X146210330Y-88029586D01*
X146326387Y-87869845D01*
X146326388Y-87869844D01*
X146326390Y-87869841D01*
X146412963Y-87699933D01*
X146460936Y-87649140D01*
X146528757Y-87632345D01*
X146594892Y-87654882D01*
X146633928Y-87699933D01*
X146717250Y-87863459D01*
X146720504Y-87869845D01*
X146836561Y-88029586D01*
X146976199Y-88169224D01*
X147125680Y-88277826D01*
X147135945Y-88285284D01*
X147311885Y-88374931D01*
X147428490Y-88412818D01*
X147499682Y-88435950D01*
X147694710Y-88466840D01*
X147694715Y-88466840D01*
X147892182Y-88466840D01*
X148087209Y-88435950D01*
X148101274Y-88431380D01*
X148275007Y-88374931D01*
X148450947Y-88285284D01*
X148540638Y-88220119D01*
X148610692Y-88169224D01*
X148610694Y-88169221D01*
X148610698Y-88169219D01*
X148750325Y-88029592D01*
X148750327Y-88029588D01*
X148750330Y-88029586D01*
X148866387Y-87869845D01*
X148866388Y-87869844D01*
X148866390Y-87869841D01*
X148952963Y-87699933D01*
X149000936Y-87649140D01*
X149068757Y-87632345D01*
X149134892Y-87654882D01*
X149173928Y-87699933D01*
X149257250Y-87863459D01*
X149260504Y-87869845D01*
X149376561Y-88029586D01*
X149516199Y-88169224D01*
X149665680Y-88277826D01*
X149675945Y-88285284D01*
X149851885Y-88374931D01*
X149968490Y-88412818D01*
X150039682Y-88435950D01*
X150234710Y-88466840D01*
X150234715Y-88466840D01*
X150432182Y-88466840D01*
X150627209Y-88435950D01*
X150641274Y-88431380D01*
X150815007Y-88374931D01*
X150990947Y-88285284D01*
X151080638Y-88220119D01*
X151150692Y-88169224D01*
X151150694Y-88169221D01*
X151150698Y-88169219D01*
X151290325Y-88029592D01*
X151290327Y-88029588D01*
X151290330Y-88029586D01*
X151406387Y-87869845D01*
X151406388Y-87869844D01*
X151406390Y-87869841D01*
X151492963Y-87699933D01*
X151540936Y-87649140D01*
X151608757Y-87632345D01*
X151674892Y-87654882D01*
X151713928Y-87699933D01*
X151797250Y-87863459D01*
X151800504Y-87869845D01*
X151916561Y-88029586D01*
X152056199Y-88169224D01*
X152205680Y-88277826D01*
X152215945Y-88285284D01*
X152391885Y-88374931D01*
X152508490Y-88412818D01*
X152579682Y-88435950D01*
X152774710Y-88466840D01*
X152774715Y-88466840D01*
X152972182Y-88466840D01*
X153167209Y-88435950D01*
X153181274Y-88431380D01*
X153355007Y-88374931D01*
X153530947Y-88285284D01*
X153620638Y-88220119D01*
X153690692Y-88169224D01*
X153690694Y-88169221D01*
X153690698Y-88169219D01*
X153830325Y-88029592D01*
X153830327Y-88029588D01*
X153830330Y-88029586D01*
X153946387Y-87869845D01*
X153946388Y-87869844D01*
X153946390Y-87869841D01*
X154032963Y-87699933D01*
X154080936Y-87649140D01*
X154148757Y-87632345D01*
X154214892Y-87654882D01*
X154253928Y-87699933D01*
X154337250Y-87863459D01*
X154340504Y-87869845D01*
X154456561Y-88029586D01*
X154596199Y-88169224D01*
X154745680Y-88277826D01*
X154755945Y-88285284D01*
X154931885Y-88374931D01*
X155048490Y-88412818D01*
X155119682Y-88435950D01*
X155314710Y-88466840D01*
X155314715Y-88466840D01*
X155512182Y-88466840D01*
X155707209Y-88435950D01*
X155721274Y-88431380D01*
X155895007Y-88374931D01*
X156070947Y-88285284D01*
X156160638Y-88220119D01*
X156230692Y-88169224D01*
X156230694Y-88169221D01*
X156230698Y-88169219D01*
X156370325Y-88029592D01*
X156370327Y-88029588D01*
X156370330Y-88029586D01*
X156421225Y-87959532D01*
X156486390Y-87869841D01*
X156576037Y-87693901D01*
X156637056Y-87506103D01*
X156667946Y-87311076D01*
X156667946Y-87113603D01*
X156637056Y-86918576D01*
X156590580Y-86775539D01*
X156576037Y-86730779D01*
X156486390Y-86554839D01*
X156455937Y-86512924D01*
X156370330Y-86395093D01*
X156230692Y-86255455D01*
X156070950Y-86139398D01*
X156070949Y-86139397D01*
X156070947Y-86139396D01*
X155895007Y-86049749D01*
X155895004Y-86049748D01*
X155707209Y-85988729D01*
X155512182Y-85957840D01*
X155512177Y-85957840D01*
X155314715Y-85957840D01*
X155314710Y-85957840D01*
X155119682Y-85988729D01*
X154931887Y-86049748D01*
X154755941Y-86139398D01*
X154596199Y-86255455D01*
X154456561Y-86395093D01*
X154340504Y-86554835D01*
X154340502Y-86554839D01*
X154299226Y-86635848D01*
X154253931Y-86724743D01*
X154205956Y-86775539D01*
X154138135Y-86792334D01*
X154072000Y-86769796D01*
X154032961Y-86724743D01*
X153946390Y-86554839D01*
X153915937Y-86512924D01*
X153830330Y-86395093D01*
X153690692Y-86255455D01*
X153530950Y-86139398D01*
X153530949Y-86139397D01*
X153530947Y-86139396D01*
X153355007Y-86049749D01*
X153355004Y-86049748D01*
X153167209Y-85988729D01*
X152972182Y-85957840D01*
X152972177Y-85957840D01*
X152774715Y-85957840D01*
X152774710Y-85957840D01*
X152579682Y-85988729D01*
X152391887Y-86049748D01*
X152215941Y-86139398D01*
X152056199Y-86255455D01*
X151916561Y-86395093D01*
X151800504Y-86554835D01*
X151800502Y-86554839D01*
X151759226Y-86635848D01*
X151713931Y-86724743D01*
X151665956Y-86775539D01*
X151598135Y-86792334D01*
X151532000Y-86769796D01*
X151492961Y-86724743D01*
X151406390Y-86554839D01*
X151375937Y-86512924D01*
X151290330Y-86395093D01*
X151150692Y-86255455D01*
X150990950Y-86139398D01*
X150990949Y-86139397D01*
X150990947Y-86139396D01*
X150815007Y-86049749D01*
X150815004Y-86049748D01*
X150627209Y-85988729D01*
X150432182Y-85957840D01*
X150432177Y-85957840D01*
X150234715Y-85957840D01*
X150234710Y-85957840D01*
X150039682Y-85988729D01*
X149851887Y-86049748D01*
X149675941Y-86139398D01*
X149516199Y-86255455D01*
X149376561Y-86395093D01*
X149260504Y-86554835D01*
X149260502Y-86554839D01*
X149219226Y-86635848D01*
X149173931Y-86724743D01*
X149125956Y-86775539D01*
X149058135Y-86792334D01*
X148992000Y-86769796D01*
X148952961Y-86724743D01*
X148866390Y-86554839D01*
X148835937Y-86512924D01*
X148750330Y-86395093D01*
X148610692Y-86255455D01*
X148447006Y-86136532D01*
X148448045Y-86135101D01*
X148406279Y-86088933D01*
X148393946Y-86035022D01*
X148393946Y-84806839D01*
X148413631Y-84739800D01*
X148466435Y-84694045D01*
X148517946Y-84682839D01*
X148651317Y-84682839D01*
X148651318Y-84682839D01*
X148710929Y-84676431D01*
X148845777Y-84626136D01*
X148960992Y-84539886D01*
X149047242Y-84424671D01*
X149096256Y-84293256D01*
X149138127Y-84237324D01*
X149203591Y-84212906D01*
X149271864Y-84227757D01*
X149300119Y-84248909D01*
X149413659Y-84362449D01*
X149585625Y-84487388D01*
X149585627Y-84487389D01*
X149585630Y-84487391D01*
X149775034Y-84583897D01*
X149977203Y-84649586D01*
X150187159Y-84682840D01*
X150187160Y-84682840D01*
X150399732Y-84682840D01*
X150399733Y-84682840D01*
X150609689Y-84649586D01*
X150811858Y-84583897D01*
X151001262Y-84487391D01*
X151087584Y-84424675D01*
X151173232Y-84362449D01*
X151173234Y-84362446D01*
X151173238Y-84362444D01*
X151323550Y-84212132D01*
X151323552Y-84212128D01*
X151323555Y-84212126D01*
X151409336Y-84094057D01*
X151448497Y-84040156D01*
X151453239Y-84030848D01*
X151501209Y-83980051D01*
X151569029Y-83963251D01*
X151635165Y-83985785D01*
X151674209Y-84030840D01*
X151678819Y-84039887D01*
X151718174Y-84094056D01*
X152350483Y-83461748D01*
X152367521Y-83525333D01*
X152433347Y-83639347D01*
X152526439Y-83732439D01*
X152640453Y-83798265D01*
X152704036Y-83815302D01*
X152071728Y-84447609D01*
X152071728Y-84447610D01*
X152125895Y-84486964D01*
X152315228Y-84583435D01*
X152517316Y-84649097D01*
X152727200Y-84682340D01*
X152939692Y-84682340D01*
X153149573Y-84649097D01*
X153149576Y-84649097D01*
X153351663Y-84583435D01*
X153541000Y-84486962D01*
X153595162Y-84447610D01*
X153595163Y-84447610D01*
X152962854Y-83815302D01*
X153026439Y-83798265D01*
X153140453Y-83732439D01*
X153233545Y-83639347D01*
X153299371Y-83525333D01*
X153316408Y-83461749D01*
X153948716Y-84094057D01*
X153948716Y-84094056D01*
X153988068Y-84039894D01*
X154084541Y-83850557D01*
X154150203Y-83648470D01*
X154150203Y-83648467D01*
X154183446Y-83438586D01*
X154183446Y-83226093D01*
X154150203Y-83016212D01*
X154150203Y-83016209D01*
X154084541Y-82814122D01*
X154058640Y-82763288D01*
X154032023Y-82711051D01*
X160902946Y-82711051D01*
X160902946Y-82953628D01*
X160934607Y-83194125D01*
X160997393Y-83428444D01*
X161037526Y-83525333D01*
X161090222Y-83652552D01*
X161211510Y-83862629D01*
X161211512Y-83862632D01*
X161211513Y-83862633D01*
X161359179Y-84055076D01*
X161359185Y-84055083D01*
X161530702Y-84226600D01*
X161530709Y-84226606D01*
X161535410Y-84230213D01*
X161723157Y-84374276D01*
X161933234Y-84495564D01*
X162157346Y-84588394D01*
X162391657Y-84651178D01*
X162572032Y-84674924D01*
X162632157Y-84682840D01*
X162632158Y-84682840D01*
X162874735Y-84682840D01*
X162923431Y-84676429D01*
X163115235Y-84651178D01*
X163349546Y-84588394D01*
X163573658Y-84495564D01*
X163783735Y-84374276D01*
X163976184Y-84226605D01*
X164147711Y-84055078D01*
X164295382Y-83862629D01*
X164416670Y-83652552D01*
X164509500Y-83428440D01*
X164572284Y-83194129D01*
X164603946Y-82953628D01*
X164603946Y-82711052D01*
X164602557Y-82700505D01*
X164585458Y-82570622D01*
X164572284Y-82470551D01*
X164509500Y-82236240D01*
X164500753Y-82215124D01*
X164463338Y-82124795D01*
X164416670Y-82012128D01*
X164295382Y-81802051D01*
X164234464Y-81722661D01*
X164147712Y-81609603D01*
X164147706Y-81609596D01*
X163976189Y-81438079D01*
X163976182Y-81438073D01*
X163783739Y-81290407D01*
X163783738Y-81290406D01*
X163783735Y-81290404D01*
X163573658Y-81169116D01*
X163573651Y-81169113D01*
X163349550Y-81076287D01*
X163115231Y-81013501D01*
X162874735Y-80981840D01*
X162874734Y-80981840D01*
X162632158Y-80981840D01*
X162632157Y-80981840D01*
X162391660Y-81013501D01*
X162157341Y-81076287D01*
X161933240Y-81169113D01*
X161933231Y-81169117D01*
X161723152Y-81290407D01*
X161530709Y-81438073D01*
X161530702Y-81438079D01*
X161359185Y-81609596D01*
X161359179Y-81609603D01*
X161211513Y-81802046D01*
X161090223Y-82012125D01*
X161090219Y-82012134D01*
X160997393Y-82236235D01*
X160934607Y-82470554D01*
X160902946Y-82711051D01*
X154032023Y-82711051D01*
X153988070Y-82624790D01*
X153948716Y-82570622D01*
X153948715Y-82570622D01*
X153316408Y-83202930D01*
X153299371Y-83139347D01*
X153233545Y-83025333D01*
X153140453Y-82932241D01*
X153026439Y-82866415D01*
X152962855Y-82849377D01*
X153595162Y-82217068D01*
X153540996Y-82177715D01*
X153351663Y-82081244D01*
X153149575Y-82015582D01*
X152939692Y-81982340D01*
X152727200Y-81982340D01*
X152517318Y-82015582D01*
X152517315Y-82015582D01*
X152315228Y-82081244D01*
X152125885Y-82177720D01*
X152071728Y-82217067D01*
X152071728Y-82217068D01*
X152704037Y-82849377D01*
X152640453Y-82866415D01*
X152526439Y-82932241D01*
X152433347Y-83025333D01*
X152367521Y-83139347D01*
X152350483Y-83202931D01*
X151718174Y-82570622D01*
X151718173Y-82570622D01*
X151678826Y-82624780D01*
X151678822Y-82624786D01*
X151674206Y-82633845D01*
X151626227Y-82684637D01*
X151558405Y-82701427D01*
X151492272Y-82678883D01*
X151453240Y-82633833D01*
X151448497Y-82624524D01*
X151448495Y-82624521D01*
X151448494Y-82624519D01*
X151323555Y-82452553D01*
X151173232Y-82302230D01*
X151001266Y-82177291D01*
X150811860Y-82080784D01*
X150811859Y-82080783D01*
X150811858Y-82080783D01*
X150609689Y-82015094D01*
X150609687Y-82015093D01*
X150609686Y-82015093D01*
X150448403Y-81989548D01*
X150399733Y-81981840D01*
X150187159Y-81981840D01*
X150187154Y-81981840D01*
X150091717Y-81996956D01*
X150022424Y-81988002D01*
X149984638Y-81962164D01*
X149470867Y-81448392D01*
X149470860Y-81448386D01*
X149397175Y-81399152D01*
X149397175Y-81399153D01*
X149347937Y-81366253D01*
X149211363Y-81309683D01*
X149211353Y-81309680D01*
X149066366Y-81280840D01*
X149066364Y-81280840D01*
X141520528Y-81280840D01*
X141520526Y-81280840D01*
X141375538Y-81309680D01*
X141375532Y-81309682D01*
X141238954Y-81366254D01*
X141238942Y-81366261D01*
X141189716Y-81399151D01*
X141189717Y-81399152D01*
X141116027Y-81448389D01*
X140602252Y-81962164D01*
X140540929Y-81995649D01*
X140495172Y-81996956D01*
X140399737Y-81981840D01*
X140399733Y-81981840D01*
X140187159Y-81981840D01*
X140187154Y-81981840D01*
X140091717Y-81996956D01*
X140022424Y-81988002D01*
X139984638Y-81962164D01*
X138271867Y-80249392D01*
X138271860Y-80249386D01*
X138198175Y-80200152D01*
X138198175Y-80200153D01*
X138148937Y-80167253D01*
X138012363Y-80110683D01*
X138012353Y-80110680D01*
X137867366Y-80081840D01*
X137867364Y-80081840D01*
X127679528Y-80081840D01*
X127679526Y-80081840D01*
X127534538Y-80110680D01*
X127534532Y-80110682D01*
X127397954Y-80167254D01*
X127397942Y-80167261D01*
X127348715Y-80200153D01*
X127275034Y-80249384D01*
X127275026Y-80249390D01*
X125578895Y-81945521D01*
X125517572Y-81979006D01*
X125491214Y-81981840D01*
X124355575Y-81981840D01*
X124355569Y-81981841D01*
X124295962Y-81988248D01*
X124161117Y-82038542D01*
X124161110Y-82038546D01*
X124045901Y-82124792D01*
X124045898Y-82124795D01*
X123959652Y-82240004D01*
X123959648Y-82240011D01*
X123909354Y-82374857D01*
X123902947Y-82434456D01*
X123902946Y-82434475D01*
X123902946Y-83570110D01*
X123883261Y-83637149D01*
X123866627Y-83657791D01*
X121978897Y-85545521D01*
X121917574Y-85579006D01*
X121891216Y-85581840D01*
X121037522Y-85581840D01*
X121008688Y-85587574D01*
X121008689Y-85587575D01*
X120892539Y-85610679D01*
X120892529Y-85610682D01*
X120812527Y-85643819D01*
X120812528Y-85643820D01*
X120755948Y-85667257D01*
X120706715Y-85700153D01*
X120633034Y-85749384D01*
X120633026Y-85749390D01*
X119869496Y-86512920D01*
X119869490Y-86512928D01*
X119820258Y-86586608D01*
X119820259Y-86586609D01*
X119787367Y-86635836D01*
X119787360Y-86635848D01*
X119730788Y-86772426D01*
X119730786Y-86772432D01*
X119701946Y-86917419D01*
X119701946Y-86917422D01*
X119701946Y-89605258D01*
X119701946Y-89605260D01*
X119701945Y-89605260D01*
X116753946Y-89605260D01*
X116753946Y-82898229D01*
X116753947Y-82898226D01*
X116753946Y-82835573D01*
X116754116Y-82829088D01*
X116755560Y-82801525D01*
X116760301Y-82711051D01*
X117902946Y-82711051D01*
X117902946Y-82953628D01*
X117934607Y-83194125D01*
X117997393Y-83428444D01*
X118037526Y-83525333D01*
X118090222Y-83652552D01*
X118211510Y-83862629D01*
X118211512Y-83862632D01*
X118211513Y-83862633D01*
X118359179Y-84055076D01*
X118359185Y-84055083D01*
X118530702Y-84226600D01*
X118530709Y-84226606D01*
X118535410Y-84230213D01*
X118723157Y-84374276D01*
X118933234Y-84495564D01*
X119157346Y-84588394D01*
X119391657Y-84651178D01*
X119572032Y-84674924D01*
X119632157Y-84682840D01*
X119632158Y-84682840D01*
X119874735Y-84682840D01*
X119923431Y-84676429D01*
X120115235Y-84651178D01*
X120349546Y-84588394D01*
X120573658Y-84495564D01*
X120783735Y-84374276D01*
X120976184Y-84226605D01*
X121147711Y-84055078D01*
X121295382Y-83862629D01*
X121416670Y-83652552D01*
X121509500Y-83428440D01*
X121572284Y-83194129D01*
X121603946Y-82953628D01*
X121603946Y-82711052D01*
X121602557Y-82700505D01*
X121585458Y-82570622D01*
X121572284Y-82470551D01*
X121509500Y-82236240D01*
X121500753Y-82215124D01*
X121463338Y-82124795D01*
X121416670Y-82012128D01*
X121295382Y-81802051D01*
X121234464Y-81722661D01*
X121147712Y-81609603D01*
X121147706Y-81609596D01*
X120976189Y-81438079D01*
X120976182Y-81438073D01*
X120783739Y-81290407D01*
X120783738Y-81290406D01*
X120783735Y-81290404D01*
X120573658Y-81169116D01*
X120573651Y-81169113D01*
X120349550Y-81076287D01*
X120115231Y-81013501D01*
X119874735Y-80981840D01*
X119874734Y-80981840D01*
X119632158Y-80981840D01*
X119632157Y-80981840D01*
X119391660Y-81013501D01*
X119157341Y-81076287D01*
X118933240Y-81169113D01*
X118933231Y-81169117D01*
X118723152Y-81290407D01*
X118530709Y-81438073D01*
X118530702Y-81438079D01*
X118359185Y-81609596D01*
X118359179Y-81609603D01*
X118211513Y-81802046D01*
X118090223Y-82012125D01*
X118090219Y-82012134D01*
X117997393Y-82236235D01*
X117934607Y-82470554D01*
X117902946Y-82711051D01*
X116760301Y-82711051D01*
X116770034Y-82525284D01*
X116771390Y-82512388D01*
X116818471Y-82215116D01*
X116821169Y-82202420D01*
X116827787Y-82177720D01*
X116899067Y-81911693D01*
X116903067Y-81899383D01*
X117010930Y-81618383D01*
X117016201Y-81606544D01*
X117152848Y-81338358D01*
X117159323Y-81327142D01*
X117323256Y-81074707D01*
X117330871Y-81064225D01*
X117520288Y-80830314D01*
X117528954Y-80820689D01*
X117741791Y-80607853D01*
X117751419Y-80599184D01*
X117985329Y-80409768D01*
X117995810Y-80402153D01*
X118248247Y-80238220D01*
X118259462Y-80231745D01*
X118527648Y-80095099D01*
X118539487Y-80089828D01*
X118820487Y-79981965D01*
X118832804Y-79977963D01*
X119123538Y-79900064D01*
X119136206Y-79897371D01*
X119433506Y-79850287D01*
X119446385Y-79848934D01*
X119640328Y-79838772D01*
X119750317Y-79833010D01*
X119756803Y-79832840D01*
X119819332Y-79832841D01*
X119819336Y-79832840D01*
X162750191Y-79832840D01*
X162756682Y-79833010D01*
G37*
%TD.AperFunction*%
%TD*%
M02*
